<svg xmlns="http://www.w3.org/2000/svg" viewBox="0 0 577.7 721.91"><defs><style>.cls-1{fill:#a5b1da;}.cls-1,.cls-2{stroke:#4d5aa8;}.cls-1,.cls-2,.cls-3,.cls-4,.cls-5,.cls-6,.cls-7{stroke-linejoin:round;}.cls-1,.cls-2,.cls-5,.cls-6,.cls-7{stroke-width:6px;}.cls-2,.cls-4,.cls-7{fill:none;}.cls-3{fill:#fff;}.cls-3,.cls-4{stroke:#558249;stroke-width:3px;}.cls-5,.cls-6{fill:#569351;}.cls-5,.cls-6,.cls-7{stroke:#405e3d;}.cls-6{stroke-linecap:round;}.cls-8{fill:#c0a1cc;}</style></defs><g id="Layer_2" data-name="Layer 2"><g id="Layer_1-2" data-name="Layer 1"><path class="cls-1" d="M316.83,382c17.55-3.64,36.1,5.41,47.14,19.53s15.44,32.46,16.08,50.37-2.16,35.73-4.08,53.55a546.4,546.4,0,0,0-1.63,99.23c1.39,18.51,3.72,37.17,1.17,55.55s-10.75,36.94-26.16,47.3c-14.31,9.62-32.51,10.88-49.76,11.29-18.26.44-37.42.06-53.41-8.76-21.35-11.78-32.67-36.61-35.31-60.85s1.93-48.59,4.85-72.8a538.72,538.72,0,0,0,1.55-114.6c-1.88-20.12-4.52-42,6.1-59.16,9.27-15,27.12-23,44.68-24.72s35.14,2,52.39,5.66"/><path class="cls-2" d="M380.23,459.35A133.87,133.87,0,0,1,214,440"/><path class="cls-2" d="M372.31,516.41c-3.39,10.82-12.86,19-23.43,23.11s-22.19,4.71-33.53,4.28A204.3,204.3,0,0,1,216.73,514"/><path class="cls-2" d="M371,589.54c-9.67,10.8-24.05,16.48-38.43,18.19s-28.94-.18-43.25-2.45C261.94,601,232,593.46,216.6,570.44"/><path class="cls-2" d="M372.75,637.47a121.66,121.66,0,0,1-166.31-6"/><path class="cls-2" d="M364.19,405.77c-.77,7.91-6.51,14.7-13.47,18.55s-15,5.18-22.93,5.9a175.25,175.25,0,0,1-101.52-21.81"/><path class="cls-3" d="M282.12,377.54c-.19-15.28-.38-30.55-.47-45.83"/><path class="cls-4" d="M263.89,372.94c-2-39.57-18.8-78.22-45.6-107.41"/><path class="cls-4" d="M253.24,372.85A171.27,171.27,0,0,0,110.85,230.73"/><path class="cls-4" d="M317.33,382.06a159.91,159.91,0,0,1,16.3-59.43"/><path class="cls-4" d="M333.37,379.27c11.09-76.62,73.57-143.09,149.1-160.13"/><path class="cls-4" d="M358,393.08c3.29-10.12,6.76-20.54,13.79-28.53s18.64-12.95,28.55-9.07"/><path class="cls-4" d="M404.28,423c-6.33-18.68-26.12-31.86-45.8-30.48"/><path class="cls-4" d="M342.81,384.34a129.86,129.86,0,0,1,27-50.44"/><path class="cls-4" d="M300.09,381.49a853.4,853.4,0,0,1,19-163.46"/><path class="cls-4" d="M233.23,390.66c-3-9.3-15.29-14.19-23.89-9.54"/><path class="cls-4" d="M246,382.63l-12.45-26"/><path class="cls-4" d="M101.47,377.64c42.48-26.32,101.22-23.14,140.62,7.6"/><path class="cls-5" d="M217.88,382c-11.27,6.73-16.43,20.19-19.7,32.9s-5.72,26.28-14.07,36.4-25.19,14.74-34.56,5.54c12.77,21.43,7.71,51.78-11.32,67.91-19.95,16.9-50.35,17.77-69.09,36,7.45-5.38,10.07-15.47,9.38-24.63s-4.11-17.84-6.47-26.72c-3.94-14.81-4.85-31,1.14-45.13s20-25.45,35.36-24.93c-.67-25.32,14.4-50.4,37.07-61.7s51.77-8.24,74.93,3.34"/><path class="cls-5" d="M234.62,355.44c-3.47-23.29-10.4-46.89-25.69-64.79s-40.47-28.82-63-22c-11.52,3.47-23.48,11.25-34.56,6.57-7.06-3-11.37-10.34-18.13-13.94-10.74-5.71-24-.42-34.2,6.14A147.87,147.87,0,0,0,3,333.7c5.3-9.93,18.91-12.47,29.75-9.46s20,10.1,29.91,15.43,22,8.95,32.29,4.47c10.78-4.69,18.33-17.56,30.08-17.09,9.92.41,16.33,10.14,23,17.5,20.87,23,59.55,27,84.69,8.76"/><path class="cls-5" d="M217.51,262.85c.84-17.31,1.66-34.86-2-51.81S203.27,177.51,188.8,168c-10.78-7.1-24.55-10.28-32.55-20.4-3.3-4.18-5.36-9.28-8.93-13.24-10.55-11.7-29.24-9.27-44.58-5.66S69,135.32,57.8,124.22C70,131.17,76.62,144.8,81.67,157.9s9.64,27.07,19.77,36.8,28,13.2,37.84,3.19c-2.06,18.48,9.87,36.27,25.36,46.56s34.1,14.55,52.24,18.62"/><path class="cls-5" d="M279.44,329c32.24-39.56,36-99.93,8.8-143.14-5.79-9.21-13-18-15.14-28.69-2.77-13.64,3.18-27.36,5.23-41.13,2.93-19.61-2.18-39.75-10.89-57.56s-20.88-33.65-33-49.37c-9.3,17-18.67,34.13-24.38,52.64s-7.54,38.74-1.65,57.19c3.92,12.29,11.16,23.56,13.13,36.3,1.79,11.55-.9,23.26-1.72,34.92-1.84,26,5.74,52,17.48,75.32s27.53,44.28,43.24,65.11"/><path class="cls-5" d="M316.74,213.31c16.65-12.06,33.44-24.24,47.07-39.63s24-34.47,25.36-55c.46-6.9,0-14.27,3.55-20.2,4-6.66,11.87-9.67,18.19-14.17,11.94-8.52,18.54-23,20.69-37.49S432,17.56,430.24,3c-34.39,11.47-64.4,35.56-79,67.66-28.7,6.41-47.64,35.84-51,65.05s5.53,58.32,14.93,86.18"/><path class="cls-5" d="M536.42,75.91c-6.21,27-12.61,54.57-26.78,78.41S472,198.16,444.39,201c-6.12.63-12.83.6-17.59,4.49-5.35,4.37-6.25,12-8.1,18.67-12.19,44-74.54,58.68-87.08,102.62-13.35-48.59,4.28-104.27,43.17-136.32,7.67-6.32,16.12-11.83,22.65-19.33,7.92-9.08,12.53-20.5,19.11-30.59,12.77-19.61,32.72-33.69,54.1-43.2S515,82.49,537.9,76.59"/><path class="cls-5" d="M370.75,333.73c4.1-13.53,8.24-27.18,15.19-39.49s17-23.32,30.06-28.79c17-7.12,36.44-4,53,.69,7.85-10.4,23.05-12.65,35.62-9.22s23.31,11.37,34.25,18.44,23,13.58,35.84,14.47c-10-1.25-19.31,5.13-26.76,11.94s-14.62,14.69-24.29,17.58c-10.67,3.2-22.17-.38-32.29-5s-20-10.51-29.62-12.09c-14.51,9.07-29.09,18.19-44.82,24.92s-32.8,11-49.29,10.8"/><path class="cls-6" d="M400.24,351.15A50.63,50.63,0,0,1,478,370.81c2.85,6.58,5.49,14.89,12.5,16.35,6.09,1.28,11.73-3.66,17.91-4.4s12.44,3.08,16.2,8.18,5.62,11.33,7.4,17.42c6.44,22,12.88,44,21.13,65.82-7.87-10.84-23.25-12.51-36.64-11.87s-27.81,2.4-39.28-4.52c-13.16-8-17.79-27.25-11.2-42.47-15.57,8.48-37.52,1.67-45.55-14.14-4.46-8.79-4.8-19-6.82-28.67s-6.72-19.88-16.07-22.13"/><path class="cls-5" d="M396,407.27c3.24,9.29,12.21,15.31,21.2,19.31s18.7,6.75,26.54,12.7c13.88,10.51,19.2,30.91,12.38,45.64,14,1.61,26.23,11.4,33.28,23.63s9.46,26.63,9.68,40.75c.11,7.42-.34,14.92,1.08,22.2s5,14.55,12,17.52c-4.62-5.57-11.91-8.24-19.07-9.32s-14.45-.79-21.63-1.66a68.15,68.15,0,0,1-44.75-25.14c-10.88-13.77-16.05-31.91-12-49-10.17-4.79-16.48-15.59-18.64-26.62s-.81-22.42.7-33.56,3.15-22.44.9-33.34v.56"/><path class="cls-7" d="M537.71,78.81A658.24,658.24,0,0,0,328.14,321.3"/><path class="cls-7" d="M281.26,328.57c6.19-23.85,1.29-49.2-6.33-72.64s-18-46.07-23-70.18c-11.95-57,6-120-19.58-172.32"/><path class="cls-7" d="M319.73,216.44c-6.3-20.33,3.07-42.19,14.84-59.92S361,122.26,367,101.84c3.28-11.11,3.87-23,8.56-33.63C386.67,43.09,418.13,30.77,427,4.74"/><path class="cls-7" d="M216.26,261.93c2.22-13.69-7.83-26.32-18.73-34.91s-23.66-15.64-30.82-27.52C159,186.62,159,169.78,149.57,158c-20.34-25.47-67.09-9.24-89.68-32.79h.57"/><path class="cls-7" d="M228.41,357.23c-1.6-17-18.37-28.58-34.66-33.8s-34.09-6.83-48.61-15.89c-12.15-7.58-23.29-20.6-37.48-18.61-11.32,1.59-19,12.42-29.69,16.56-12.13,4.71-25.63.06-38.63-.67s-29.17,6.25-28.78,19.26"/><path class="cls-7" d="M214.14,381.6c-25.78,1.63-49.79,19.66-58.55,44-2.56,7.13-4,14.92-8.79,20.82-7.22,9-19.93,11.16-29.09,18.12C103.08,475.63,100.3,496.1,98,514.33S91,553.22,74.83,562"/><path class="cls-7" d="M505.47,582.53A156.5,156.5,0,0,1,454,511.74c-4.12-11.5-7.31-24.17-16.53-32.18-5.39-4.67-12.49-7.37-16.93-12.95-5.76-7.24-5.63-17.32-6.86-26.49s-5.63-19.6-14.72-21.36"/><path class="cls-7" d="M567.39,286c-27.78,10.62-58.22-5.34-87.95-6-20.81-.47-41.22,6.71-59.23,17.16s-33.92,24.06-49.73,37.6"/><path class="cls-7" d="M400.74,350.34c15.31-4.56,30.09,7.59,41.44,18.82q18.31,18.12,36.5,36.34c22.24,22.29,44.42,44.76,69,64.48"/><path class="cls-8" d="M502.37,208.42l30.36-32.27c1.81-1.93,3.73-3.92,6.22-4.81s5.75-.25,7,2.09-1.07,5.9-4.44,8c4-3.37,11.15-1.6,13.13,3.27s-1.88,11.11-6.68,12.27c3.64-3.14,10.34-.89,11.36,3.8s-4.17,9.51-8.86,8.93c4.5-2,10.33,2.53,9.59,7.38s-7.64,7.4-11.89,5.59c4.58-.36,8.57,5,6.93,9.26s-8.18,5.6-11.2,2.23c3.41,2.58,2.89,8.75-.9,10.72s-9.14-1.16-10.06-6.29a43.15,43.15,0,0,1-32.18-21.35c2.83-.5,4.12-4.31,2.81-6.87s-4.32-3.85-7.19-4c-4.52-.29-9.3,2-11.29,6.06s-.48,9.71,3.6,11.68,9.86-1,13-5.53"/><path class="cls-8" d="M98.74,221.62c4.71,0,9.7,0,13.71,2.52s6.32,8.31,3.45,12.05c-2.14,2.78-6.29,3.31-9.62,2.17s-6-3.58-8.78-5.48a57.88,57.88,0,0,1-49.91,27.93,11.53,11.53,0,0,1-.77-11.45c1.81-3.59,5.66-6.05,8.75-7.18-3.92,2.85-10.42.39-11.49-4.34s3.76-9.73,8-9.47c-4.53,2.21-10.71-2-10.35-7s7.1-8.27,11.39-6.89c-5.48,0-9.63-6.86-7.11-11.73s10.49-5.44,13.83-1.05c-3.56-2.77-3.2-9.15.65-11.51s9.69.24,11.38,2.82a5,5,0,0,1,1.81-9.64c2.75,0,5,2.21,6.72,4.33a84.68,84.68,0,0,1,17.4,33.71l1.7,2.83"/><path class="cls-8" d="M98.67,377.13c4.49,7.09-1,18.08-10,19l-1.79,31.7c-.17,3.06-.39,6.26-2,8.86S79.74,441,77,439.58s-2.5-6.48.27-8.72c-3.27,1.28-7,2.56-10.17,1.07s-3.93-7.15-.46-8a8.58,8.58,0,0,1-2.72-.35,6.34,6.34,0,0,1-8.44,1.28C53,423,52.27,419,53.72,415.77a6,6,0,0,1-8-1.84c-1.58-2.61-.59-6.45,2.31-7.45a20.94,20.94,0,0,1-14.46-4.64A13,13,0,0,1,44,393.61c-3.91,1.13-8.39-2.43-8.17-6.49s5.05-7.13,8.82-5.41c13.77.37,27.53.75,42.1,1.05,1-6.27,10.48-9,13.91-3.53"/></g></g></svg>