<svg xmlns="http://www.w3.org/2000/svg" viewBox="0 0 580.92 559.72"><defs><style>.cls-1{fill:#f3f2b0;}.cls-1,.cls-2,.cls-3,.cls-4{stroke:#562416;stroke-miterlimit:10;}.cls-1,.cls-2{stroke-width:10px;}.cls-2{fill:#562416;}.cls-3{fill:#eba3c8;}.cls-3,.cls-4{stroke-width:6px;}.cls-4{fill:none;}</style></defs><g id="Layer_2" data-name="Layer 2"><g id="Layer_1-2" data-name="Layer 1"><path class="cls-1" d="M419.39,549.93,302.89,485.7a37.91,37.91,0,0,0-35.26-.7l-119,59.56c-28.07,14.06-60.08-10.18-54.16-41l25.08-130.66a37.87,37.87,0,0,0-10.23-33.74L16,244.42c-22-22.36-8.88-60.29,22.28-64.19l132-16.52a37.85,37.85,0,0,0,28.93-20.15L260.39,25.45C274.84-2.43,315-1.63,328.32,26.79l56.51,120.45a37.84,37.84,0,0,0,28.1,21.28l131.26,21.74c31,5.13,42.62,43.55,19.71,65l-97.09,91a37.89,37.89,0,0,0-11.56,33.31l19.89,131.54C479.83,542.14,446.89,565.09,419.39,549.93Z"/><ellipse class="cls-2" cx="224.69" cy="267.73" rx="7.19" ry="11.19"/><ellipse class="cls-2" cx="342.55" cy="271.18" rx="7.19" ry="11.19"/><circle class="cls-3" cx="199.98" cy="295.7" r="7.48"/><circle class="cls-3" cx="367.86" cy="295.7" r="7.48"/><path class="cls-4" d="M251.41,338.65c6.71,13.64,20.9,21.67,35.23,20.13,18.68-2,27.2-19.13,27.68-20.13"/></g></g></svg>