<svg xmlns="http://www.w3.org/2000/svg" viewBox="0 0 775.7 635.26"><defs><style>.cls-1{fill:#c47e44;stroke:#562416;stroke-miterlimit:10;stroke-width:10px;}.cls-2{fill:#deb27e;}.cls-3{fill:#eee2c2;}.cls-4{fill:#fff;}.cls-5{fill:#f5b529;}</style></defs><g id="Layer_2" data-name="Layer 2"><g id="Layer_1-2" data-name="Layer 1"><path class="cls-1" d="M296.39,89.34C124.15,101.07,9.53,177.37,5.13,252.91c-.84,14.4,1.3,46.36,40.73,87.63Q53,367,60.12,393.4a387.14,387.14,0,0,0,42.77,147.71,391.19,391.19,0,0,0,43.25,65.44,66.64,66.64,0,0,0,24,18.29c42.5,18.73,95.7-15.38,134.94-37.66,61-34.6,130.23-53.74,194.05-83.27a2530.73,2530.73,0,0,1,237.22-95.22c3.78-.71,17.25-3.7,26.48-15.58,14.65-18.83,4.52-41.86,4.08-42.84a600.61,600.61,0,0,0-22.41-70.1C722.82,224.46,642.91,18.86,502.1,5.6c-19-1.78-87.9-4.68-173.13,74Z"/><path class="cls-2" d="M303.44,107C144.5,117.78,38.73,188.2,34.66,257.9c-.77,13.29,1.21,42.79,37.6,80.87q6.57,24.39,13.15,48.78a357.47,357.47,0,0,0,39.47,136.31,361.34,361.34,0,0,0,39.91,60.39,61.55,61.55,0,0,0,22.12,16.88c39.22,17.29,88.31-14.19,124.53-34.75,56.26-31.93,120.18-49.59,179.07-76.84a2332.31,2332.31,0,0,1,218.92-87.87c3.48-.66,15.91-3.42,24.44-14.38,13.52-17.38,4.17-38.64,3.76-39.53A554.85,554.85,0,0,0,717,283.06C697,231.65,623.23,41.91,493.28,29.68,475.8,28,412.17,25.36,333.52,98Z"/><path class="cls-3" d="M94.2,214.8c-10.91,6.46-22.32,13.8-27.41,25.37-10.56,24,10.71,48.87,27.45,69.09a263.87,263.87,0,0,1,58.52,137.21c2.9,25.21,4.89,55.53,27.24,67.71,8.16,4.45,17.7,5.45,27,6.14a566.46,566.46,0,0,0,195.65-19.74c25.07-7.08,50.26-16.25,70.09-33.09C485.77,456.38,496,442.37,508,430.18a172.73,172.73,0,0,1,93.49-48.49c19.29-3.25,39.12-3.2,58.11-7.86s38-15.27,45.91-33.06c10.35-23.12-1.09-50.56-17.87-69.58S649,238,632.82,218.55c-17.58-21.12-27.72-47.54-44.86-69-21.78-27.29-53.3-44.78-84-61.58-49.09-26.89-151,16.93-202.65,33.52A1020.84,1020.84,0,0,0,94.2,214.8Z"/><path class="cls-4" d="M244.17,152.57c-7.9,5.76-15.25,12.7-19.53,21.49-10.22,21-.73,45.93-2.08,69.25-1.54,26.75-17.41,50.77-21,77.31-5.15,37.81,18.3,77.64,53.85,91.49,19.78,7.71,42,7.92,61.43,16.37,28.36,12.3,49.52,41.33,80.26,44.61,29,3.1,55.09-18.59,71.63-42.66s27.75-52.05,48.1-73c17.08-17.57,39.4-28.93,59-43.61s37.58-34.95,39.29-59.39c1.26-18.07-6.8-35.85-18.55-49.64s-27-24.13-42.31-33.77Q522,150.78,487.78,133.71C481,130.31,474,127,466.51,125.5c-7.89-1.55-16-1-24-.37-20.38,1.51-41.51,1.56-61.72,4.62-12.55,1.9-23.85,10.14-36.54,9.72-17.06-.56-31.72-7.93-49.61-6A105,105,0,0,0,244.17,152.57Z"/><circle class="cls-5" cx="385.27" cy="281.51" r="72.93"/><path class="cls-4" d="M344.17,247.21c-2.93,1.28-3.56,5.09-3.77,8.28-.9,13.34-.92,28.83,9.34,37.4a66.14,66.14,0,0,1,8.31-50.22,42.67,42.67,0,0,0-17.12,6.55"/></g></g></svg>