<svg xmlns="http://www.w3.org/2000/svg" viewBox="0 0 490.02 426.01"><defs><style>.cls-1{fill:#7b90aa;stroke-width:10px;}.cls-1,.cls-2{stroke:#562416;stroke-miterlimit:10;}.cls-2{fill:#44576d;stroke-width:6px;}</style></defs><g id="Layer_2" data-name="Layer 2"><g id="Layer_1-2" data-name="Layer 1"><circle class="cls-1" cx="126.91" cy="189.14" r="121.91"/><circle class="cls-1" cx="363.11" cy="299.11" r="121.91"/><circle class="cls-1" cx="319.57" cy="126.91" r="121.91"/><path class="cls-2" d="M135.81,134,147.68,158a9.93,9.93,0,0,0,7.48,5.43l26.54,3.86a9.93,9.93,0,0,1,5.5,16.94L168,203a9.93,9.93,0,0,0-2.86,8.79l4.53,26.43a9.93,9.93,0,0,1-14.41,10.47l-23.73-12.48a10,10,0,0,0-9.25,0L98.55,248.67A9.93,9.93,0,0,1,84.14,238.2l4.53-26.43A9.91,9.91,0,0,0,85.81,203l-19.2-18.72a9.93,9.93,0,0,1,5.5-16.94l26.54-3.86a9.93,9.93,0,0,0,7.48-5.43L118,134A9.93,9.93,0,0,1,135.81,134Z"/><path class="cls-2" d="M372,51.86l11.87,24a9.93,9.93,0,0,0,7.48,5.43l26.54,3.86a9.93,9.93,0,0,1,5.5,16.94l-19.2,18.72a9.91,9.91,0,0,0-2.86,8.79l4.53,26.43a9.93,9.93,0,0,1-14.41,10.47l-23.73-12.48a10,10,0,0,0-9.25,0l-23.73,12.48a9.93,9.93,0,0,1-14.41-10.47l4.53-26.43a9.93,9.93,0,0,0-2.86-8.79l-19.2-18.72a9.93,9.93,0,0,1,5.5-16.94l26.54-3.86a9.93,9.93,0,0,0,7.48-5.43l11.87-24A9.93,9.93,0,0,1,372,51.86Z"/><path class="cls-2" d="M337.16,269.11l11.87,24a9.93,9.93,0,0,0,7.47,5.44L383,302.44a9.93,9.93,0,0,1,5.51,16.94L369.34,338.1a9.91,9.91,0,0,0-2.85,8.79L371,373.32a9.93,9.93,0,0,1-14.41,10.47l-23.74-12.48a9.93,9.93,0,0,0-9.24,0l-23.74,12.48a9.93,9.93,0,0,1-14.41-10.47L290,346.89a9.94,9.94,0,0,0-2.86-8.79L268,319.38a9.93,9.93,0,0,1,5.5-16.94L300,298.59a9.94,9.94,0,0,0,7.48-5.44l11.87-24A9.92,9.92,0,0,1,337.16,269.11Z"/></g></g></svg>