<svg xmlns="http://www.w3.org/2000/svg" viewBox="0 0 1000.91 1047.71"><defs><style>.cls-1,.cls-3,.cls-6{fill:#f3f2b0;}.cls-1,.cls-2,.cls-3,.cls-4,.cls-5,.cls-6,.cls-7{stroke:#562416;}.cls-1,.cls-2,.cls-4,.cls-5,.cls-7{stroke-miterlimit:10;}.cls-1,.cls-2,.cls-3,.cls-5{stroke-width:10px;}.cls-2,.cls-4{fill:none;}.cls-3,.cls-6{stroke-linejoin:round;}.cls-4,.cls-6,.cls-7{stroke-width:6px;}.cls-5,.cls-7{fill:#562416;}</style></defs><g id="Layer_2" data-name="Layer 2"><g id="Layer_1-2" data-name="Layer 1"><polygon class="cls-1" points="477.9 494.94 811.47 149.95 864.1 195.05 548.32 551.31 477.9 494.94"/><polyline class="cls-2" points="502.43 469.57 569.62 527.28 595.19 498.43 527.21 443.94 554.01 416.23 620.92 469.4 640.93 446.82 575.88 393.61 599.37 369.32 663.35 421.54 683.18 399.16 620.43 347.53 641.48 325.76 705.32 374.18 728.2 348.37 666.63 299.75 685.97 279.75 745.9 328.4 771.5 299.52 711.58 253.26 737.97 225.97 795.95 271.93 823.13 241.27 765.2 197.81 790.36 171.79 839.27 217.31"/><path class="cls-1" d="M285.61,542.35a74.32,74.32,0,0,1-69.33,52.31c-102.54-3-190.27,66.68-208,158.47C-6.37,829,28.85,909.33,97.42,955.19c64.11,85.08,177.67,110.79,263.47,65.37,71-37.59,113-118.6,105.18-204-1.17-5.51-3.49-20.12,3.77-35.66,12.21-26.12,40.63-31.57,43.58-32.09,10.56-3.1,44.56-14.51,69.34-49.12,26.83-37.49,24.66-76.81,23.77-87.17a251.55,251.55,0,0,0-40.87-83.21C515.54,462.53,446,440.82,420.32,434.2c-7-1.09-53.39-7.47-93.11,25.75C289.58,491.43,286.09,534.9,285.61,542.35Z"/><path class="cls-3" d="M982.71,39.32A20.9,20.9,0,0,0,951,15.42h0c-8.45-1.22-9.7-1.43-9.7-1.43-4.29-.74-10.39-2.84-18-9L813.75,130.4c-1.16.95-7,5.86-7.53,14a19.33,19.33,0,0,0,1.87,9.63l52.63,45.1A22.54,22.54,0,0,0,868.2,198a24.42,24.42,0,0,0,12.87-10.83L995.91,72.32a54.53,54.53,0,0,1-13.2-33Z"/><circle class="cls-4" cx="349.24" cy="694.24" r="87.6"/><path class="cls-5" d="M137.57,760.75,282.14,905.32c5.39,11.12,1.64,24.12-7.7,29.94-7.59,4.72-17.88,4.09-25.66-1.71L141.85,826.62l-39.07-39.08a23.37,23.37,0,0,1,34.79-26.79Z"/><line class="cls-6" x1="151.11" y1="835.88" x2="847.54" y2="137.04"/><line class="cls-6" x1="174.05" y1="854.03" x2="857.73" y2="142.71"/><line class="cls-6" x1="193.18" y1="866.82" x2="871.03" y2="149.95"/><line class="cls-6" x1="217.74" y1="893.88" x2="877.9" y2="160.68"/><rect class="cls-6" x="829.95" y="87.29" width="109.62" height="22.87" transform="translate(230.3 702.24) rotate(-49.05)"/><rect class="cls-6" x="855.92" y="109.92" width="109.24" height="22.87" transform="translate(222.1 729.51) rotate(-49.05)"/><circle class="cls-7" cx="349.24" cy="694.24" r="73.07"/><circle class="cls-4" cx="823.07" cy="98.73" r="14.44"/><circle class="cls-4" cx="849.66" cy="69.85" r="14.44"/><circle class="cls-4" cx="877.9" cy="37.59" r="14.44"/><circle class="cls-4" cx="912.67" cy="180.52" r="14.44"/><circle class="cls-4" cx="939.27" cy="151.64" r="14.44"/><circle class="cls-4" cx="967.51" cy="119.38" r="14.44"/></g></g></svg>