<svg xmlns="http://www.w3.org/2000/svg" viewBox="0 0 1022.15 401.08"><defs><style>.cls-1{fill:#f6d6e6;}.cls-1,.cls-2,.cls-3{stroke:#562416;stroke-miterlimit:10;}.cls-1,.cls-3{stroke-width:10px;}.cls-2{fill:#f4e4eb;stroke-width:6px;}.cls-3,.cls-4{fill:#ce2027;}</style></defs><g id="Layer_2" data-name="Layer 2"><g id="Layer_1-2" data-name="Layer 1"><path class="cls-1" d="M158.48,28.19H881A110.81,110.81,0,0,1,961.9,63.12c38.2,40.82,58.71,95.59,54.77,151.7-3.32,47.38-23.26,84.05-44.29,110.13a129.7,129.7,0,0,1-101,47.94h-721A114.06,114.06,0,0,1,83.3,351.3c-51.74-37.6-82-98.9-77.94-162.7,3-47.85,25-92.08,59.8-124.21A137.39,137.39,0,0,1,158.48,28.19Z"/><rect class="cls-1" x="315.54" y="5" width="391.08" height="391.08" rx="48.89"/><path class="cls-2" d="M412.9,69.24H588a46.2,46.2,0,0,1,46.2,46.2V306.92a24.92,24.92,0,0,1-24.92,24.92H412.9A24.92,24.92,0,0,1,388,306.92V94.16A24.92,24.92,0,0,1,412.9,69.24Z"/><circle class="cls-2" cx="152.8" cy="125.95" r="14.3"/><circle class="cls-2" cx="203" cy="125.95" r="14.3"/><circle class="cls-2" cx="254.4" cy="125.95" r="14.3"/><circle class="cls-2" cx="152.2" cy="174.57" r="14.3"/><circle class="cls-2" cx="202.4" cy="174.57" r="14.3"/><circle class="cls-2" cx="253.8" cy="174.57" r="14.3"/><circle class="cls-2" cx="152.2" cy="223.19" r="14.3"/><circle class="cls-2" cx="202.4" cy="223.19" r="14.3"/><circle class="cls-2" cx="253.8" cy="223.19" r="14.3"/><circle class="cls-2" cx="152.2" cy="271.81" r="14.3"/><circle class="cls-2" cx="202.4" cy="271.81" r="14.3"/><circle class="cls-2" cx="253.8" cy="271.81" r="14.3"/><circle class="cls-2" cx="774.97" cy="125.95" r="14.3"/><circle class="cls-2" cx="825.17" cy="125.95" r="14.3"/><circle class="cls-2" cx="876.57" cy="125.95" r="14.3"/><circle class="cls-2" cx="774.37" cy="174.57" r="14.3"/><circle class="cls-2" cx="824.58" cy="174.57" r="14.3"/><circle class="cls-2" cx="875.97" cy="174.57" r="14.3"/><circle class="cls-2" cx="774.37" cy="223.19" r="14.3"/><circle class="cls-2" cx="824.58" cy="223.19" r="14.3"/><circle class="cls-2" cx="875.97" cy="223.19" r="14.3"/><circle class="cls-2" cx="774.37" cy="271.81" r="14.3"/><circle class="cls-2" cx="824.58" cy="271.81" r="14.3"/><circle class="cls-2" cx="875.97" cy="271.81" r="14.3"/><circle class="cls-3" cx="478.23" cy="183.89" r="31.07"/><circle class="cls-3" cx="540.38" cy="183.89" r="31.07"/><polygon class="cls-3" points="456.81 206.38 508.88 252.37 561.8 206.38 509.31 183.89 456.81 206.38"/><ellipse class="cls-4" cx="478.95" cy="185.13" rx="26.87" ry="25.83"/><ellipse class="cls-4" cx="539.71" cy="185.13" rx="26.87" ry="25.83"/></g></g></svg>