<svg xmlns="http://www.w3.org/2000/svg" viewBox="0 0 784.59 582.87"><defs><style>.cls-1{fill:#b0aeae;}.cls-1,.cls-2,.cls-3{stroke:#562416;stroke-miterlimit:10;}.cls-1,.cls-2{stroke-width:10px;}.cls-2{fill:#99805f;}.cls-3{fill:none;stroke-width:6px;}</style></defs><g id="Layer_2" data-name="Layer 2"><g id="Layer_1-2" data-name="Layer 1"><path class="cls-1" d="M256,52.44,5.84,119.29c-1.58,18.33-6.71,101.12,52.32,175,48.78,61,112.2,79.52,133.11,84.67L353,172.4Z"/><path class="cls-2" d="M256.06,58.66c-4.75-21.12,6-42.72,24.88-50.61,17.92-7.49,38.94-.84,50.12,16.15L771.32,504c13.49,20.2,10,47.67-7.16,62.94-15.93,14.15-40.08,14.68-57.27.72L361.45,194.35Z"/><path class="cls-3" d="M41.17,184.47A279,279,0,0,0,179,343.77"/><path class="cls-3" d="M353,52.44A40.52,40.52,0,0,0,341.24,73C336.83,93.55,351.45,109.44,353,111a62.12,62.12,0,0,0,44.09,40.59c2.35,10.32,9.76,18.26,19,20.29a24.43,24.43,0,0,0,16.49-2.54l37.86,6.73"/><path class="cls-3" d="M360.47,56.26c-.93.9-13.93,13.81-10.26,30.76A31.62,31.62,0,0,0,360.47,104c1.21,4.66,5.82,20,20.79,30.28a51.18,51.18,0,0,0,21.44,8.41c.76,1.87,5.34,12.62,16.4,16a23.53,23.53,0,0,0,9.25.84,37.24,37.24,0,0,0,21.79,3.35,34.1,34.1,0,0,0,6.48-1.76"/><path class="cls-3" d="M367.16,63.56c-.68.52-9.36,7.37-8.61,18.82.78,12,11.14,17.65,11.72,18a45,45,0,0,0,35.15,33A39.95,39.95,0,0,0,427,151.24a34.21,34.21,0,0,0,16.85,4.4,33.43,33.43,0,0,0,7-.83"/><path class="cls-3" d="M513.16,355.51a40.47,40.47,0,0,1,21.08-10.71c20.76-3.41,35.92,12,37.43,13.56a62,62,0,0,1,38.4,46c10.2,2.84,17.77,10.63,19.35,20a24.54,24.54,0,0,1-3.33,16.35q2.43,19.07,4.88,38.14"/><path class="cls-3" d="M516.61,363.19c.94-.88,14.47-13.24,31.21-8.75a31.65,31.65,0,0,1,16.42,11.07c4.6,1.44,19.65,6.79,29.23,22.23a51.15,51.15,0,0,1,7.36,21.83c1.83.85,12.35,5.95,15.17,17.16a23.59,23.59,0,0,1,.39,9.28,37.11,37.11,0,0,1,2.28,21.93,34.41,34.41,0,0,1-2.06,6.38"/><path class="cls-3" d="M523.57,370.24c.55-.66,7.82-9,19.22-7.7,11.92,1.36,17.08,12,17.36,12.58a45,45,0,0,1,31.22,36.72,40,40,0,0,1,16.88,22.46,34.29,34.29,0,0,1,3.57,17,33.12,33.12,0,0,1-1.17,7"/><path class="cls-3" d="M135.69,296.06a127.38,127.38,0,0,0,53.88,35.57"/><path class="cls-3" d="M267.72,39.31c4.87.94,8.09,5.69,9.56,10.43s1.76,9.81,3.61,14.41C285,74.37,295.69,80,303.63,87.65A53.33,53.33,0,0,1,319,116.05"/><path class="cls-3" d="M271.05,20.46a54.09,54.09,0,0,1,39.84,37c2.59,8.87,2.87,18.42,6.65,26.85,5.12,11.44,16.15,19.56,20.6,31.28,2.4,6.31,2.74,13.32,5.65,19.41,7.78,16.31,29.74,19.53,42.73,32.09,5.21,5,9.05,11.66,15.32,15.29,10.8,6.25,25,1.6,36.6,6.13,11.27,4.4,17.67,16.49,20.31,28.29s2.52,24.13,5.69,35.8a65.7,65.7,0,0,0,24.92,35.82c7.24,5.18,16,9.44,19.5,17.64,2.78,6.59,1.64,14.91,6.46,20.19,4.42,4.85,11.84,5,18.39,5.35a100.74,100.74,0,0,1,50.89,17.55"/><path class="cls-3" d="M504.36,273.78c9.92,18.79,21.66,39.17,41.79,46,10,3.36,20.94,2.89,30.89,6.33,16.56,5.71,27.66,21.19,35.84,36.68s14.85,32.27,27.21,44.69c8.14,8.18,18.69,14.41,24.1,24.6,4.82,9.09,4.76,19.88,4.6,30.16l-1,61.6"/></g></g></svg>