<svg xmlns="http://www.w3.org/2000/svg" viewBox="0 0 571.07 385.1"><defs><style>.cls-1{fill:#f6d6e6;}.cls-1,.cls-2,.cls-3,.cls-5{stroke:#562416;stroke-miterlimit:10;}.cls-1,.cls-2,.cls-3{stroke-width:10px;}.cls-2,.cls-5{fill:none;}.cls-3,.cls-6{fill:#ce2027;}.cls-4{fill:#fff;}.cls-5{stroke-width:6px;}</style></defs><g id="Layer_2" data-name="Layer 2"><g id="Layer_1-2" data-name="Layer 1"><path class="cls-1" d="M512.08,380.1H59a54,54,0,0,1-54-54v-266a54,54,0,0,1,54-54H512.08a54,54,0,0,1,54,54v266A54,54,0,0,1,512.08,380.1Z"/><path class="cls-2" d="M285.54,193.13l263.87-172a33.19,33.19,0,0,0-37.33-15H59A55.68,55.68,0,0,0,20.82,22Z"/><circle class="cls-3" cx="254.46" cy="180.24" r="31.07"/><circle class="cls-3" cx="316.61" cy="180.24" r="31.07"/><polygon class="cls-3" points="233.04 202.74 285.11 248.73 338.03 202.74 285.54 180.24 233.04 202.74"/><path class="cls-4" d="M321.88,161.64a13,13,0,0,1,7.59,4.23c3.2,3.77,3.83,9.34,1.69,14.37Z"/><line class="cls-5" x1="30.79" y1="41.35" x2="214.28" y2="161.64"/><line class="cls-5" x1="531.17" y1="46.9" x2="347.69" y2="167.19"/><path class="cls-5" d="M20.82,262.89v55.43a41.58,41.58,0,0,0,9,29,41.1,41.1,0,0,0,22.68,13.86h64.24"/><path class="cls-5" d="M549.31,262.89v55.43a41.61,41.61,0,0,1-9,29,41.09,41.09,0,0,1-22.67,13.86H453.34"/><ellipse class="cls-6" cx="255.18" cy="181.49" rx="26.87" ry="25.83"/><ellipse class="cls-6" cx="315.94" cy="181.49" rx="26.87" ry="25.83"/><polygon class="cls-6" points="280.11 171.86 285.11 185.38 291.01 171.86 294.21 193.13 276.69 195.33 280.11 171.86"/></g></g></svg>