<svg xmlns="http://www.w3.org/2000/svg" viewBox="0 0 577.7 721.91"><defs><style>.cls-1,.cls-2{fill:#fff;}.cls-1,.cls-2,.cls-3{stroke:#558249;}.cls-1,.cls-2,.cls-3,.cls-4,.cls-5,.cls-6{stroke-linejoin:round;}.cls-1,.cls-4,.cls-5,.cls-6{stroke-width:6px;}.cls-2,.cls-3{stroke-width:3px;}.cls-3,.cls-6{fill:none;}.cls-4,.cls-5{fill:#569351;}.cls-4,.cls-5,.cls-6{stroke:#405e3d;}.cls-5{stroke-linecap:round;}.cls-7{fill:#e19e37;}</style></defs><g id="Layer_2" data-name="Layer 2"><g id="Layer_1-2" data-name="Layer 1"><path class="cls-1" d="M260.87,382c-17.54-3.64-36.1,5.41-47.14,19.53S198.29,434,197.65,451.87s2.16,35.73,4.08,53.55a545.5,545.5,0,0,1,1.63,99.23c-1.39,18.51-3.71,37.17-1.17,55.55s10.76,36.94,26.16,47.3c14.32,9.62,32.52,10.88,49.76,11.29,18.26.44,37.42.06,53.41-8.76,21.35-11.78,32.68-36.61,35.32-60.85s-1.94-48.59-4.86-72.8a538.72,538.72,0,0,1-1.55-114.6c1.88-20.12,4.52-42-6.1-59.16-9.27-15-27.12-23-44.67-24.72s-35.14,2-52.39,5.66"/><path class="cls-1" d="M197.48,459.35A133.87,133.87,0,0,0,363.68,440"/><path class="cls-1" d="M205.39,516.41c3.4,10.82,12.86,19,23.43,23.11s22.19,4.71,33.53,4.28A204.3,204.3,0,0,0,361,514"/><path class="cls-1" d="M206.74,589.54c9.66,10.8,24,16.48,38.43,18.19s28.94-.18,43.25-2.45c27.34-4.33,57.3-11.82,72.68-34.84"/><path class="cls-1" d="M205,637.47a121.67,121.67,0,0,0,166.32-6"/><path class="cls-1" d="M213.51,405.77c.77,7.91,6.52,14.7,13.47,18.55s15,5.18,22.93,5.9a175.28,175.28,0,0,0,101.53-21.81"/><path class="cls-2" d="M295.59,377.54q.29-22.92.47-45.83"/><path class="cls-3" d="M313.82,372.94c2-39.57,18.8-78.22,45.6-107.41"/><path class="cls-3" d="M324.46,372.85A171.27,171.27,0,0,1,466.85,230.73"/><path class="cls-3" d="M260.38,382.06a160.12,160.12,0,0,0-16.31-59.43"/><path class="cls-3" d="M244.34,379.27c-11.09-76.62-73.58-143.09-149.1-160.13"/><path class="cls-3" d="M219.72,393.08c-3.29-10.12-6.75-20.54-13.79-28.53s-18.64-12.95-28.55-9.07"/><path class="cls-3" d="M173.43,423c6.32-18.68,26.11-31.86,45.79-30.48"/><path class="cls-3" d="M234.89,384.34a129.84,129.84,0,0,0-27-50.44"/><path class="cls-3" d="M277.61,381.49a853.4,853.4,0,0,0-19-163.46"/><path class="cls-3" d="M344.48,390.66c3-9.3,15.29-14.19,23.88-9.54"/><path class="cls-3" d="M331.7,382.63l12.44-26"/><path class="cls-3" d="M476.24,377.64c-42.48-26.32-101.23-23.14-140.63,7.6"/><path class="cls-4" d="M359.82,382c11.27,6.73,16.43,20.19,19.7,32.9s5.72,26.28,14.08,36.4,25.19,14.74,34.55,5.54c-12.77,21.43-7.71,51.78,11.33,67.91,19.94,16.9,50.34,17.77,69.08,36-7.44-5.38-10.07-15.47-9.38-24.63s4.11-17.84,6.47-26.72c3.94-14.81,4.85-31-1.14-45.13s-20-25.45-35.36-24.93c.67-25.32-14.4-50.4-37.07-61.7s-51.77-8.24-74.93,3.34"/><path class="cls-4" d="M343.09,355.44c3.46-23.29,10.39-46.89,25.69-64.79s40.46-28.82,63-22c11.52,3.47,23.47,11.25,34.55,6.57,7.06-3,11.37-10.34,18.14-13.94,10.74-5.71,23.95-.42,34.2,6.14a147.85,147.85,0,0,1,56,66.31c-5.3-9.93-18.91-12.47-29.75-9.46s-20,10.1-29.91,15.43-22,8.95-32.28,4.47c-10.79-4.69-18.34-17.56-30.08-17.09-9.93.41-16.33,10.14-23,17.5-20.87,23-59.54,27-84.68,8.76"/><path class="cls-4" d="M360.2,262.85c-.84-17.31-1.67-34.86,2-51.81s12.27-33.53,26.75-43.06c10.77-7.1,24.54-10.28,32.54-20.4,3.31-4.18,5.36-9.28,8.93-13.24,10.56-11.7,29.24-9.27,44.58-5.66s33.76,6.64,44.95-4.46C507.7,131.17,501.09,144.8,496,157.9s-9.64,27.07-19.77,36.8-28,13.2-37.84,3.19c2.07,18.48-9.87,36.27-25.36,46.56S379,259,360.82,263.07"/><path class="cls-4" d="M298.27,329c-32.25-39.56-36-99.93-8.8-143.14,5.79-9.21,13-18,15.13-28.69,2.78-13.64-3.17-27.36-5.23-41.13-2.93-19.61,2.18-39.75,10.89-57.56s20.89-33.65,33-49.37c9.31,17,18.68,34.13,24.38,52.64s7.54,38.74,1.65,57.19c-3.92,12.29-11.15,23.56-13.13,36.3-1.79,11.55.9,23.26,1.73,34.92,1.84,26-5.75,52-17.49,75.32s-27.53,44.28-43.23,65.11"/><path class="cls-4" d="M261,213.31c-16.65-12.06-33.44-24.24-47.06-39.63s-24-34.47-25.37-55c-.46-6.9,0-14.27-3.55-20.2-4-6.66-11.87-9.67-18.19-14.17-11.94-8.52-18.53-23-20.69-37.49S145.7,17.56,147.47,3c34.38,11.47,64.4,35.56,79,67.66,28.7,6.41,47.65,35.84,51,65.05S272,194,262.56,221.89"/><path class="cls-4" d="M41.29,75.91c6.2,27,12.6,54.57,26.78,78.41s37.65,43.84,65.25,46.66c6.11.63,12.83.6,17.59,4.49,5.35,4.37,6.25,12,8.09,18.67,12.2,44,74.55,58.68,87.08,102.62,13.36-48.59-4.28-104.27-43.16-136.32-7.68-6.32-16.13-11.83-22.66-19.33-7.91-9.08-12.53-20.5-19.1-30.59-12.78-19.61-32.72-33.69-54.1-43.2S62.71,82.49,39.8,76.59"/><path class="cls-4" d="M207,333.73c-4.09-13.53-8.24-27.18-15.19-39.49s-17-23.32-30-28.79c-17-7.12-36.45-4-53,.69-7.85-10.4-23-12.65-35.61-9.22s-23.32,11.37-34.26,18.44S15.81,288.94,3,289.83c10-1.25,19.32,5.13,26.76,11.94s14.63,14.69,24.29,17.58c10.68,3.2,22.18-.38,32.3-5s20-10.51,29.61-12.09c14.51,9.07,29.09,18.19,44.82,24.92s32.8,11,49.29,10.8"/><path class="cls-5" d="M177.47,351.15a50.63,50.63,0,0,0-77.79,19.66c-2.85,6.58-5.49,14.89-12.51,16.35-6.09,1.28-11.73-3.66-17.91-4.4s-12.43,3.08-16.2,8.18-5.61,11.33-7.39,17.42c-6.45,22-12.89,44-21.13,65.82,7.87-10.84,23.25-12.51,36.63-11.87s27.81,2.4,39.29-4.52c13.16-8,17.79-27.25,11.2-42.47,15.56,8.48,37.52,1.67,45.54-14.14,4.47-8.79,4.8-19,6.82-28.67s6.72-19.88,16.07-22.13"/><path class="cls-4" d="M181.73,407.27c-3.23,9.29-12.21,15.31-21.2,19.31s-18.7,6.75-26.54,12.7c-13.87,10.51-19.19,30.91-12.37,45.64-14,1.61-26.24,11.4-33.28,23.63s-9.47,26.63-9.69,40.75c-.11,7.42.34,14.92-1.07,22.2s-5,14.55-12,17.52c4.63-5.57,11.92-8.24,19.07-9.32s14.46-.79,21.64-1.66A68.2,68.2,0,0,0,151,552.9c10.87-13.77,16-31.91,12-49,10.17-4.79,16.47-15.59,18.64-26.62s.8-22.42-.7-33.56-3.15-22.44-.91-33.34v.56"/><path class="cls-6" d="M40,78.81A658.43,658.43,0,0,1,249.57,321.3"/><path class="cls-6" d="M296.44,328.57c-6.19-23.85-1.29-49.2,6.33-72.64s18-46.07,23-70.18c11.94-57-6-120,19.57-172.32"/><path class="cls-6" d="M258,216.44c6.31-20.33-3.06-42.19-14.83-59.92s-26.41-34.26-32.43-54.68c-3.28-11.11-3.87-23-8.56-33.63C191,43.09,159.57,30.77,150.68,4.74"/><path class="cls-6" d="M361.44,261.93c-2.22-13.69,7.84-26.32,18.73-34.91S403.83,211.38,411,199.5c7.76-12.88,7.76-29.72,17.15-41.47,20.33-25.47,67.08-9.24,89.67-32.79h-.56"/><path class="cls-6" d="M349.3,357.23c1.6-17,18.36-28.58,34.66-33.8s34.09-6.83,48.61-15.89c12.15-7.58,23.29-20.6,37.47-18.61,11.32,1.59,19,12.42,29.69,16.56,12.14,4.71,25.64.06,38.63-.67s29.17,6.25,28.78,19.26"/><path class="cls-6" d="M363.56,381.6c25.79,1.63,49.8,19.66,58.55,44,2.57,7.13,4,14.92,8.79,20.82,7.22,9,19.94,11.16,29.1,18.12,14.63,11.12,17.41,31.59,19.73,49.82s7,38.89,23.15,47.67"/><path class="cls-6" d="M72.24,582.53a156.57,156.57,0,0,0,51.51-70.79c4.11-11.5,7.31-24.17,16.53-32.18,5.38-4.67,12.48-7.37,16.93-12.95,5.76-7.24,5.62-17.32,6.85-26.49s5.64-19.6,14.72-21.36"/><path class="cls-6" d="M10.32,286c27.78,10.62,58.22-5.34,87.95-6,20.8-.47,41.21,6.71,59.22,17.16s33.93,24.06,49.74,37.6"/><path class="cls-6" d="M177,350.34c-15.3-4.56-30.09,7.59-41.44,18.82Q117.22,387.28,99,405.5c-22.24,22.29-44.42,44.76-69,64.48"/><path class="cls-7" d="M75.33,208.42,45,176.15c-1.81-1.93-3.72-3.92-6.22-4.81s-5.74-.25-7,2.09,1.08,5.9,4.45,8c-4-3.37-11.16-1.6-13.14,3.27S25,195.84,29.76,197c-3.64-3.14-10.34-.89-11.35,3.8s4.17,9.51,8.85,8.93c-4.5-2-10.33,2.53-9.58,7.38s7.64,7.4,11.88,5.59c-4.58-.36-8.56,5-6.92,9.26s8.17,5.6,11.2,2.23c-3.42,2.58-2.9,8.75.89,10.72s9.15-1.16,10.06-6.29A43.18,43.18,0,0,0,77,217.27c-2.84-.5-4.13-4.31-2.82-6.87s4.32-3.85,7.19-4c4.52-.29,9.3,2,11.29,6.06s.48,9.71-3.6,11.68-9.85-1-13-5.53"/><path class="cls-7" d="M479,221.62c-4.71,0-9.7,0-13.71,2.52s-6.32,8.31-3.45,12.05c2.14,2.78,6.3,3.31,9.62,2.17s6-3.58,8.78-5.48a57.89,57.89,0,0,0,49.92,27.93,11.5,11.5,0,0,0,.76-11.45c-1.81-3.59-5.66-6.05-8.75-7.18,3.93,2.85,10.43.39,11.49-4.34s-3.75-9.73-8-9.47c4.53,2.21,10.72-2,10.35-7s-7.09-8.27-11.39-6.89c5.48,0,9.63-6.86,7.12-11.73s-10.5-5.44-13.83-1.05c3.56-2.77,3.2-9.15-.65-11.51s-9.69.24-11.39,2.82a5,5,0,0,0-1.8-9.64c-2.76,0-5,2.21-6.73,4.33a84.81,84.81,0,0,0-17.4,33.71l-1.7,2.83"/><path class="cls-7" d="M479,377.13c-4.48,7.09,1,18.08,10,19l1.79,31.7c.17,3.06.39,6.26,2,8.86s5.13,4.29,7.84,2.85,2.5-6.48-.28-8.72c3.27,1.28,7,2.56,10.18,1.07s3.92-7.15.45-8a8.64,8.64,0,0,0,2.73-.35,6.32,6.32,0,0,0,8.43,1.28c2.56-1.84,3.25-5.81,1.8-9.08a6,6,0,0,0,8-1.84c1.58-2.61.59-6.45-2.31-7.45a21,21,0,0,0,14.47-4.64,13,13,0,0,0-10.41-8.23c3.91,1.13,8.39-2.43,8.18-6.49s-5.06-7.13-8.83-5.41c-13.76.37-27.53.75-42.1,1.05-1-6.27-10.48-9-13.91-3.53"/></g></g></svg>