<svg xmlns="http://www.w3.org/2000/svg" viewBox="0 0 449.3 417.41"><defs><style>.cls-1{fill:#f3f2b0;}.cls-1,.cls-2,.cls-3,.cls-4{stroke:#562416;stroke-miterlimit:10;}.cls-1,.cls-2{stroke-width:10px;}.cls-2{fill:#562416;}.cls-3{fill:#eaa539;}.cls-3,.cls-4{stroke-width:6px;}.cls-4{fill:#eba3c8;}</style></defs><g id="Layer_2" data-name="Layer 2"><g id="Layer_1-2" data-name="Layer 1"><path class="cls-1" d="M83.94,163.68a39.6,39.6,0,0,1-8.23-27.51c1.45-16.15,12.56-25.32,14.51-26.88,19.16-63.88,79-106.76,144-104.18,61,2.42,114.62,44.37,132.45,104.18a48.83,48.83,0,0,1,8.64,65,35.23,35.23,0,0,1,61.52,0c1.35,2.29,13.84,24.3,3.34,48.82C428.51,250.22,399.65,255,398,255.19l-12.7-18.72c2.42,4.89,26.47,55.45,1.34,99.63s-89.48,64.4-149.11,38.11h-21.4c-59.41,24.4-123.92,4.28-151.79-41.45-29.85-49-4.15-105.17-2-109.66q-4,10.69-8,21.39c-21.8-2.05-40.24-16.29-46.81-36.11-8.27-24.95,6.48-46,8-48.14,1.83-1.72,18.67-17.05,41.46-12.7A47.16,47.16,0,0,1,83.94,163.68Z"/><ellipse class="cls-2" cx="173.2" cy="117.63" rx="7.19" ry="11.19"/><ellipse class="cls-2" cx="291.06" cy="121.09" rx="7.19" ry="11.19"/><ellipse class="cls-3" cx="232.13" cy="126.15" rx="23.71" ry="9.59"/><path class="cls-3" d="M136.7,304.12c-5-1.28-9.85,0-12.26,3.19a8.55,8.55,0,0,0-1.59,4.27c1.57,15.79,15.3,27.46,30.37,26.64,13.95-.76,25.76-12.06,27.17-26.64a14.52,14.52,0,0,0-8-6.93,13.73,13.73,0,0,0-6.4-.53,14.65,14.65,0,0,0-29.3,0Z"/><path class="cls-3" d="M323.72,383.51c1.66,16.88-11.83,31.09-27.17,30.9-14.37-.18-27-12.94-26.64-28.77Z"/><circle class="cls-4" cx="148.49" cy="145.6" r="7.48"/><circle class="cls-4" cx="316.37" cy="145.6" r="7.48"/></g></g></svg>