<svg xmlns="http://www.w3.org/2000/svg" xmlns:xlink="http://www.w3.org/1999/xlink" viewBox="0 0 459.5 553.67"><defs><style>.cls-1{fill:#fff;}</style></defs><g id="Layer_2" data-name="Layer 2"><g id="Layer_1-2" data-name="Layer 1"><image width="860" height="1044" transform="translate(0 7.75) scale(0.5)" xlink:href="../../../Screenshot%202024-03-26%20at%205.42.50%E2%80%AFPM.png"/><rect class="cls-1" x="88.27" y="78.2" width="178.99" height="16.55"/><rect class="cls-1" x="251.38" y="39.32" width="32.33" height="32.33"/><rect class="cls-1" x="379.33" y="30.68" width="32.33" height="32.33"/><rect class="cls-1" x="254.75" y="63.01" width="20.81" height="20.81"/><rect class="cls-1" x="275.56" y="25.95" width="52.86" height="20.89"/><rect class="cls-1" x="357.68" y="-1.37" width="52.86" height="136.97" transform="translate(65.05 291.26) rotate(-45)"/><rect class="cls-1" x="373.5" y="163.27" width="53.64" height="43.66"/><rect class="cls-1" x="400.32" y="120.7" width="29.68" height="48.3"/><rect class="cls-1" x="384.11" y="180.08" width="75.39" height="334.66"/><rect class="cls-1" x="30.82" y="470.08" width="89.34" height="65.66" transform="translate(261.57 29.63) rotate(30)"/><rect class="cls-1" x="99.99" y="486.76" width="7.53" height="16.15"/><rect class="cls-1" x="115.06" y="494.83" width="285.26" height="34.92"/><rect class="cls-1" x="35.41" y="196.89" width="29.06" height="269.42"/><rect class="cls-1" x="75.49" y="83.31" width="28.26" height="70.85"/><rect class="cls-1" x="44.43" y="141.01" width="40.09" height="55.97" transform="translate(118.65 -3.57) rotate(38.31)"/></g></g></svg>