<svg xmlns="http://www.w3.org/2000/svg" viewBox="0 0 274.39 240.91"><defs><style>.cls-1,.cls-2{fill:#f6d6e6;stroke:#562416;}.cls-1{stroke-miterlimit:10;stroke-width:10px;}.cls-2{stroke-linejoin:round;stroke-width:6px;}</style></defs><g id="Layer_2" data-name="Layer 2"><g id="Layer_1-2" data-name="Layer 1"><path class="cls-1" d="M136.07,207.6c-.56,1.47-9.07,22.76-31.48,27.44-16.9,3.53-34.7-3.86-44.85-18.72,1.78-.14,16-1.48,22.54-12.9a23.6,23.6,0,0,0,2.94-9.54,26.25,26.25,0,0,1-6.46,14.52c-9.18,9.88-25.16,9.37-34.71,4.85C29.38,206.3,21.14,185.74,27.1,164,8,151.35.46,128.58,7.73,110.74c7.51-18.42,27.55-23.65,29.86-24.21-15.13-21.44-8.16-48.76,8.88-58.12,12.62-6.92,30.62-3.93,43.59,8.07a42.73,42.73,0,0,0-10.25-7.16,43.68,43.68,0,0,0-21.22-4.45C59.57,23.42,72.72,4.69,95.71,5c17.47.24,33.45,11.39,40.36,28.25Z"/><path class="cls-1" d="M138.33,207.6c.55,1.47,9.06,22.76,31.47,27.44,16.9,3.53,34.7-3.86,44.86-18.72-1.79-.14-16-1.48-22.55-12.9a23.41,23.41,0,0,1-2.93-9.54,26.15,26.15,0,0,0,6.45,14.52c9.18,9.88,25.16,9.37,34.71,4.85C245,206.3,253.26,185.74,247.29,164c19.12-12.66,26.64-35.43,19.37-53.27-7.5-18.42-27.55-23.65-29.86-24.21,15.14-21.44,8.16-48.76-8.88-58.12-12.62-6.92-30.62-3.93-43.59,8.07a42.73,42.73,0,0,1,10.25-7.16,43.68,43.68,0,0,1,21.22-4.45c-1-1.45-14.12-20.18-37.12-19.87-17.47.24-33.45,11.39-40.35,28.25Z"/><path class="cls-2" d="M152,131.42a38.44,38.44,0,0,1-51.2,0c-6.89-8.07-13.32-12.31-16.26-10.59-.57.34-2.56,1.8-1.71,8.84q-20.35-11.25-23.21-7.85-2.3,2.73,6.74,15c-3.76-1.14-19.61-5.88-21-3-1.43,3.08,14.38,13.17,17.22,15q-19.35,2.46-19.46,5.61-.15,4,29.94,9a120,120,0,0,0,94.3-3"/><path class="cls-2" d="M115.36,101.06a38.47,38.47,0,0,0,51.2,0c6.89-8.08,13.32-12.31,16.27-10.59.57.33,2.56,1.8,1.71,8.84Q204.9,88,207.74,91.45q2.3,2.74-6.74,15c3.77-1.15,19.62-5.88,21-3,1.43,3.07-14.37,13.17-17.21,15q19.35,2.46,19.46,5.61.14,3.94-29.94,9A120.11,120.11,0,0,1,100,130"/></g></g></svg>