<svg xmlns="http://www.w3.org/2000/svg" viewBox="0 0 1018.58 1306.5"><defs><style>.cls-1{fill:#ed67a6;}.cls-1,.cls-2,.cls-3{stroke:#e71f2d;stroke-width:10px;}.cls-1,.cls-2{stroke-miterlimit:10;}.cls-2,.cls-3{fill:none;}.cls-3{stroke-linejoin:round;}</style></defs><g id="Layer_2" data-name="Layer 2"><g id="Layer_1-2" data-name="Layer 1"><rect class="cls-1" x="22.7" y="6.27" width="990.88" height="1281.99"/><path class="cls-2" d="M342.26,243.39C338,249.16,333.5,255.15,327,258.1s-15.43,1.59-18.67-4.81c-2.6-5.13-.76-11.28,0-17s-.78-13-6.27-14.47c-2.66-.73-5.48.21-8,1.41-23.57,11.42-31.91,45.44-57,52.78-4.45,1.31-9.5,1.55-13.47-.86-6.14-3.72-7.51-12.37-5.83-19.43,3.69-15.57,17.73-25.88,27.76-38.24s15.28-33.13,2.72-42.83c-13.89-3.27-27.54,6.62-36.54,17.85s-15.92,24.62-27.6,32.94c-7.38,5.25-18.63,7.58-24.69.81-6.81-7.61-1.79-19.71,3.91-28.21a266.11,266.11,0,0,1,26.94-33.82c3.52-3.75,7.31-7.7,8.31-12.78,2.24-11.37-11.94-20.39-23-17.37s-18.46,13.29-24.19,23.33-11.08,21-20.64,27.32-25,5.33-29.75-5.19c-3.41-7.52-.19-16.32,3.49-23.7,12.86-25.81,31.62-48.56,61.35-63.16,68,45.32,134.1,93.66,197.63,145.74-9.47,11.07-8.71,29.64,1.9,39.59"/><path class="cls-2" d="M176,71.66a171.46,171.46,0,0,1,28.88-47.59c5.71-6.65,12.4-13.12,20.86-15.16s18.89,2.13,21,10.68c1.71,6.84-2.14,13.73-6.07,19.54a239.52,239.52,0,0,1-18.6,24.06c-4.84,5.51-10.17,11.26-11.34,18.54s4.34,16.08,11.53,15c3.42-.54,6.16-3.07,8.67-5.49l26.7-25.68c4.69-4.51,9.58-9.15,15.67-11.36s13.77-1.32,17.76,3.85c4.66,6,2.57,14.93-1.18,21.57-6.52,11.55-17.21,20.42-22.7,32.51s-2.44,30.19,10.33,33.23c21.49,5.13,32.55-35.88,54.31-32.07,12.66,2.21,17.39,19.13,13.8,31.65s-12.39,22.88-16.8,35.13c-2.17,6-1.7,15,4.49,16.15,3.6.7,7-1.94,9.41-4.72,8.43-9.62,15.83-24.6,28.38-22.76,9.7,1.42,14.79,13.58,12.52,23.26s-9.51,17.23-16.07,24.76"/><path class="cls-2" d="M99.23,88c5.16-10.38,11.57-21.81,22.66-24.72,3.12-.81,6.75-.75,9.18,1.4,4.65,4.09,1.76,11.86-2,16.78a72.83,72.83,0,0,1-20.52,18.24c-5.78,3.44-12.26,6.09-19,5.94s-13.6-3.58-16.52-9.7c-4.34-9.11,1.31-19.86,8-27.4a118.78,118.78,0,0,1,22.17-19.21c9.15-6.27,19.43-11.72,30.47-12s22.85,6.12,25.94,16.88c4.22,14.65-8.31,28.32-19.77,38.2-17.43,15-37.32,30.48-60.16,29.83-3.31-.1-6.73-.58-9.53-2.38-3.34-2.16-5.34-5.88-7-9.52a125.16,125.16,0,0,1-9.4-29.71c-1.12-6.07-1.76-12.5.33-18.31,1.54-4.24,4.44-7.84,7.55-11.08,17.54-18.29,42.26-27.17,66-35.47,9.88-3.45,20.43-6.93,30.57-4.38S177.05,25.24,173.05,35"/><path class="cls-2" d="M34,159.14C67.29,225,32.21,308.67,58.78,377.62c8.25-3.11,12-12.9,12.82-21.79s-.3-18.11,2.51-26.57c1.26-3.78,3.59-7.57,7.33-8.82,7.36-2.46,13.67,6.08,15.83,13.64,7,24.64.5,53.95,15.92,74.27,1.69,2.24,3.77,4.38,6.45,5.08,7.78,2,12.71-8.4,13.3-16.53,1.8-25.12-6.28-50.37-3-75.33,1.18-8.95,7.18-19.87,15.81-17.7,7.36,1.85,9.1,11.51,9.37,19.2l2,58.85c.1,2.8.24,5.74,1.68,8.13,4.93,8.13,18.36,1.11,20.54-8.18s-1.22-19.17.68-28.52,14.64-17.16,20.28-9.52a390.34,390.34,0,0,1,.44,65.23c-.5,6.41-1.23,13.05-4.55,18.53-6.42,10.6-20.29,13.52-32.55,13.47s-25.07-1.93-36.38,2.87"/><path class="cls-2" d="M66.76,204.11l60.09-.22c5.15,0,10.93.23,14.45,4,4.47,4.84,2.64,13.22-2.08,17.79s-11.39,6.33-17.73,7.91L77.56,244.57c-3.69.92-7.72,2.07-9.85,5.27-3.58,5.39,1,13.16,7.05,15.29s12.67.51,19-.7c27.09-5.23,55-2.53,82.44.19,4.62.46,9.4,1,13.42,3.3s7.11,7.06,6.11,11.66c-1.54,7-10.35,8.89-17.41,9.34L66.82,296.05"/><path class="cls-2" d="M194.75,244.54l13.64-17.31"/><path class="cls-2" d="M61.47,151.14l1.37,25a17.66,17.66,0,0,0,19.6-7.24c4-6.36,3.11-15.89-2.86-20.42s-16.17-1.88-18.32,5.37"/><path class="cls-2" d="M173.73,304.87l-1.23,19.74A48.86,48.86,0,0,0,198,320c1.65-.79,3.38-1.82,4-3.55a7.85,7.85,0,0,0-.22-4.59l-3.86-15.39a49,49,0,0,0-27.33,11.66"/><path class="cls-2" d="M323.06,397.33,299.6,391.5C295.38,384,305,376.44,313,373.28s17.6-10.62,13.46-18.17c-4.34-7.91-16.4-2.47-22.34,4.28a116.67,116.67,0,0,0-16.14,23.66c-2.48,4.81-4.62,10.69-2.11,15.49,1.67,3.2,5.06,5.09,8.43,6.27,8.14,2.85,17.5,2.8,24.41,8s7.23,19.29-1.31,20.38c-2.75.35-5.45-.84-8-2-11.32-5.2-22.86-10.54-32-19.12s-15.54-21.1-13.75-33.57c1.67-11.65,10.07-21.21,19.47-28.1s20.08-11.82,29.45-18.74c5.4-4,10.85-10.61,8.21-16.85-2.12-5-8.75-6.65-13.85-4.95s-9,5.82-12.73,9.78L270.51,345c-9.75,10.45-20,22-21.44,36.35-.77,7.78,1.23,15.56,3.55,23,5.81,18.61,16.46,38.78,35.29,42.76,8.16,1.72,16.78,0,24.87,2s15.92,10.4,12.69,18.2c-3.13,7.58-13.47,8.17-21.4,6.5-32.08-6.72-60-31.21-71.17-62.46s-5.3-68.2,15-94.28c4.44-5.7,9.66-11,16.16-14.06,8.18-3.87,17.55-3.83,26.58-4s18.5-.78,26.14-5.65,12.53-15.41,8.3-23.51c-3.48-6.65-11.86-9.36-19.21-8.35s-13.94,5-20.3,8.87c-26,15.89-53.39,33.28-66.51,61.05a100.11,100.11,0,0,0-8.35,29.78c-4.28,32.4,3.73,66,20.5,93.91,5.69,9.46,12.48,18.45,21.29,25,23,17.14,54.45,14.57,82.82,11.24"/><path class="cls-3" d="M350.56,9.56a169.76,169.76,0,0,1,8.06,41.78c.66,10.16-1,22.65-10.28,26.53-6.49,2.72-14.28-.46-18.82-5.9s-6.46-12.62-7.62-19.65A122,122,0,0,1,323.41,5c-17.28,35.82-15.32,59.93-11,83.59.95,5.18,2.27,10.79,6.37,14,2.84,2.26,6.56,3,10.15,3.37,16.63,1.86,36-3.14,43.56-18.29,3.95-7.92,4-17.22,3.52-26.09-.86-16.52-3.12-33,14.31-50.11a84.91,84.91,0,0,0,1.43,40.63c.55,1.94,1.43,4.13,3.34,4.71,1.61.48,3.3-.41,4.68-1.38a31.72,31.72,0,0,0,12.66-30c-.81-5.29-2.79-11.34.52-15.51,3.83-4.84,12.23-2.55,15.41,2.75s2.63,12,1.74,18.16-2,12.64.32,18.39c2.39,5.94,7.93,9.87,11.7,15s5.19,13.56,0,17.2a13.51,13.51,0,0,1-6.42,1.91,76.81,76.81,0,0,1-18.37-.23c-4.74-.64-9.54-1.72-14.27-1s-9.5,3.91-10.39,8.68c-1.34,7.15,6.72,12.89,13.89,12.84s13.81-3.62,20.83-5.12,15.81,0,18.73,6.65c2.72,6.18-1.43,13.67-7.28,16.9s-12.84,3.32-19.5,3.32l-19.16,0c-5.15,0-10.46,0-15.22,2s-8.87,6.52-8.83,11.75c0,5.58,4.79,10.21,10.05,11.87s10.9,1,16.37.35l31.77-3.86c5.94-.72,12.84-1.11,16.94,3.31,3.63,3.92,3.38,10.44.51,15s-7.8,7.29-12.82,9a45.18,45.18,0,0,1-18.71,2.18c-6.46-.61-14-2.27-18.61,2.4-5.07,5.16-1.88,14.73,4.29,18.47s13.84,3.37,21,2.88l31.69-2.15"/><path class="cls-3" d="M392.18,231.8a35.91,35.91,0,0,1,7.27-18"/><path class="cls-3" d="M291.29,107.06l6.1,16.33q-5.91-9.36-11.36-19"/><path class="cls-3" d="M444.84,26.44c13.15,15.67,19.83,36,22.57,56.43s1.82,41.08,1.43,61.66c-.36,18.67.48,39.38,13.26,52.81,1.35,1.41,2.95,2.78,4.88,3,4.75.45,6.91-5.83,7.36-10.66a516.11,516.11,0,0,0-5.53-137.81c-.17-1-.54-2.16-1.51-2.29s-1,1.93-.18,1.49"/><path class="cls-3" d="M484.52,288.93c12.74-10.55,17.19-30.18,10.27-45.32s-24.56-24.36-40.72-21.3c-5.25,1-10.53,3.34-13.68,7.72-8.79,12.25,3.62,28,12.44,40.23A91.16,91.16,0,0,1,468.47,307c.8,4.34,1,9.5-2.23,12.43-5.47,4.93-13.82-1.39-17.39-7.87-8.23-14.92-10.17-32.91-19.28-47.3s-31.18-23.12-42.41-10.37c-8.31,9.44-5.06,24.94,2.85,34.72s19.31,15.84,29.06,23.73,18.46,19.31,17.22,31.91c-16.1,2.74-30.56-9.1-44.06-18.42s-32.81-16.3-45.06-5.35a21.85,21.85,0,0,0-5.46,23.87,21.31,21.31,0,0,0,20.49,13c7.45-.49,14-4.94,21.24-6.9s16.81,0,18.8,7.31c2.93,10.73-11.83,16.33-22.57,18.53a107.14,107.14,0,0,0-33.34,13c-10.93,6.53-21.7,20.22-14.73,31,4.48,6.91,14.51,8.07,22,4.83s13.05-9.76,18.33-16.07l22.79-27.25c3.93-4.7,10.18-9.85,15.33-6.57,5.57,3.55,2.82,12.2-.3,18.08-3.94,7.44-7.57,15.44-7.45,23.88s5.07,17.37,13.14,19.4c13.46,3.37,23.89-13.74,22.68-27.76s-8.83-26.88-9.77-40.91c-.17-2.54-.07-5.28,1.38-7.35,3.08-4.4,10.41-2.92,13.63,1.36s3.57,10.05,4,15.42a184.78,184.78,0,0,0,10.69,48.05c1.76,4.76,3.9,9.7,8,12.68,10,7.35,25.14-3.1,26.8-15.56s-5.46-24.27-13.05-34.2-16.27-19.83-18.6-32.18c-1.62-8.62,2.25-19.84,10.88-20.5,6.05-.45,11.29,4.85,13.25,10.68s1.55,12.17,1.75,18.33A88.55,88.55,0,0,0,493.14,394c3.15,8,7.85,15.92,15.33,20s18.2,3,22.79-4.3c7.18-11.36-4.31-24.9-13.19-34.94a114.15,114.15,0,0,1-26-51.34c7.67-7.45,21.24-2.87,27.52,5.82s7.76,19.87,10.73,30.21,8.75,21.23,18.93,24.27c14.57,4.36,29.1-11.57,28.64-27s-11.17-28.57-23-38.23-25.44-17.28-35.61-28.73c-.58-3.13,3-6.16,7.45-3.8,23-22.51,51.45-39.17,82.89-47.08a119.26,119.26,0,0,0-32,69c-.16,1.55-1.55,3-1,4.45s2.47-1.49,1.13-.74"/><path class="cls-2" d="M34.22,406.33a67.13,67.13,0,0,1,37-14.7c2.91-.21,6.08-.16,8.42,1.62s3.25,4.73,4.07,7.52l13,43.93c2.35,7.95,4.6,16.94.6,24.18-4.93,8.93-16.82,10.68-26.89,10-4.56-.31-10.11-1.75-11.19-6.26-.48-2,.12-4.09.71-6.07l14.94-49.7a345.76,345.76,0,0,1-41.65,16"/><path class="cls-2" d="M36.7,504.11C46,499.79,58,511,54.46,520.77c-3.56,9.93-16.53,11.9-26.87,10.73"/><path class="cls-2" d="M125.54,552c-7.23-13-19.35-23.58-33.73-26.5s-30.74,3-38.12,15.9S50.41,573.22,63.46,580c18.34,9.55,40.64-6.86,60.73-2.18,3,.7,6,2,7.91,4.42,5,6.39-1,16.22-8.57,19s-15.9,1.51-23.79,3c-13,2.41-24.72,14.12-24.46,27.58s15.23,25.25,27.41,19.93c7.22-3.15,11.51-10.63,15.3-17.62l15.13-27.94c1.64-3.05,3.44-6.24,6.41-8,7.72-4.43,17.3,4.93,17.08,13.93s-6.21,16.61-11.37,23.94c-10,14.21-18,31.87-13.63,48.76,1.28,4.91,3.74,9.73,7.9,12.55,9,6.08,22-.17,26.77-10s3.32-21.49.88-32.14-5.82-21.41-4.66-32.29a12.33,12.33,0,0,1,2-6.18c3.64-4.9,11.92-3,15.47,2s3.86,11.5,4.45,17.61a136.64,136.64,0,0,0,10.64,41.28c6,13.79,19.93,28.48,33.34,22,10.71-5.17,11.92-21.11,6-31.53s-16.53-17-25.87-24.39-18.34-17.33-18.58-29.36c-.07-3.62.85-7.53,3.61-9.82,6.79-5.64,15.89,2.42,23.08,7.51,8.69,6.13,20.93,7.86,29.88,2.13s12.3-19.78,5.3-27.83c-7.35-8.45-20.75-6.8-31.15-2.84s-21.26,9.63-32,6.91c-5.32-1.35-10.64-6-9.7-11.52.58-3.38,3.34-5.9,6.17-7.77,9.74-6.42,21.66-8.15,32.81-11.42s22.77-9.13,27.38-19.95-2.7-26.54-14.28-25.61c-6.09.49-11,5.09-15.35,9.43l-47,46.7c-8.89-8.35-6.91-23.41-1-34.13s15-19.63,19.37-31.09,1.56-27.47-9.93-31.34c-10.44-3.52-21.65,5.56-24.92,16.22s-.9,22.14,1.12,33.11,3.61,22.77-1,32.91c-4.81,2.09-9.45-3.12-12.19-7.65L100.3,482.62q22,5.72,43.74,12.17"/><path class="cls-2" d="M145.18,452.44c17.7,13.6,42.76,4.9,64.92,6.19,4.46.26,9.09,1,12.67,3.74,10.26,7.78,5.68,25,12.68,35.92,5.75,8.92,17.5,11.12,27.94,12.23,17.66,1.87,37.95,4.37,47.7,19.43,6.12,9.46,6.29,21.53,6.06,32.85-.2,10-1.22,21.38-9.08,27.4-9,6.92-23.05,2.32-29.66-7s-7.45-21.61-6.68-33.07c.62-9.11,4.87-20.66,13.86-20.2,7.43.38,11.5,9.27,11.52,16.82s-2.28,15.24-.36,22.53"/><path class="cls-2" d="M315.64,511.29a240.67,240.67,0,0,1,14,20.71,6.63,6.63,0,0,1-1.27-4.59"/><path class="cls-2" d="M443.72,462c-10.26-7.38-23.05-9.91-35.41-12.27l-60.75-11.56c-2,6.33,2.12,13.28,7.67,16.82s12.25,4.59,18.64,6.1a121.14,121.14,0,0,1,67.9,44.31c-27.87,9.88-56-15.73-85.47-16.75-2.22-.08-4.63,0-6.38,1.44-3.76,3-2,9.13.76,13.08,14.52,20.85,43.11,24.22,65.37,36.13,20.06,10.73,35.2,28.75,49.83,46.34,2.55,3.07,5.19,6.3,6.06,10.22,1.53,6.86-3,13.92-8.93,17.51s-13.05,4.49-19.93,5.32c-33,4-67.36,7.77-98.58-3.68a17.1,17.1,0,0,1-6.44-3.59c-2.92-2.93-3.6-7.38-4.13-11.51-1.63-12.65-3.22-25.73.29-38s13.55-23.53,26.1-24.16c8.66-.43,16.74,4.08,25.25,5.73C393.62,545,402,544,410,546c16.18,4,27.18,19.08,34.78,34.11,2.46,4.85,4.77,10.15,4.08,15.56s-5.6,10.6-10.87,9.51c-7.17-1.48-8.06-11.2-9.91-18.39a31.34,31.34,0,0,0-12.51-17.88c-3.28-2.23-7.38-3.84-11.15-2.65-5.67,1.79-7.85,8.89-7.56,14.91s2.18,12.07,1,18c-1.73,2.85-6.19,2.72-8.68.52s-3.44-5.66-4-9c-1.09-6.4-1.2-13-3.29-19.15s-6.77-12-13.11-12.83c-8-1.09-15.17,6.4-16.84,14.43s.66,16.29,3,24.15"/><path class="cls-2" d="M467.71,504.94c-1.91,7-3.81,14.43-1.66,21.32s10.15,12.4,16.51,9.12c5.7-3,6.82-10.69,6.35-17.17-.5-6.84-2.41-14.27-8-18.13s-15.32-1-15.63,5.86"/><path class="cls-2" d="M458,482.12c14.3-3.77,32.21-6.43,41.42,5.29,9.78,12.44,4.22,35.57,18.44,42.28,8.88,4.19,19.76-2.51,23.82-11.55s3.17-19.48,2.2-29.36l-3.56-36.44c-.8-8.27-.12-19,7.66-21.59,5.11-1.69,10.77,1.66,13.58,6.3s3.45,10.27,4,15.69q2.94,28,5.89,55.93c1,9.56,3.07,20.71,11.58,24.91,3.33,1.65,7.14,1.89,10.84,2,19.11.86,41.19-1,52.48-16.69,8.86-12.29,7.94-29,6.16-44.11q-4.08-34.6-11.48-68.69c-2.58-11.89-6.35-25-16.69-31.13-13.55-8.05-32.05,1-39.48,15s-6.53,31-4.18,46.76a299.66,299.66,0,0,0,17.74,66c1.27,3.22,2.72,6.57,5.44,8.66,4.92,3.76,12.42,1.84,16.69-2.66s6-10.84,7.28-17a159.1,159.1,0,0,0-2-71.78c-1.39-5.28-3.65-11.16-8.7-13.06-5.61-2.11-12,2.13-14.44,7.65s-2.08,11.87-1.64,17.92l2.68,36.8"/><path class="cls-2" d="M487.09,451.19l22.21,26.9"/><path class="cls-2" d="M661.73,414.11a1439.71,1439.71,0,0,0,129.8-79.72c3.64-2.51,7.63-5.63,8-10.08.42-5.4-5.16-9.69-10.49-9.87s-10.29,2.53-14.95,5.16L669.64,378.47c-6.44,3.63-16.93,5.81-19.09-1.34-.95-3.14.61-6.46,2.39-9.2,10-15.46,27.51-23.82,43.76-32.23a589.94,589.94,0,0,0,97.22-63.15c-14.59-10.44-34.46-.74-49.56,8.94L660.48,335.3c-13.12,8.41-29.77,17-43.22,9.14-15.86-9.26-13.75-33.16-7.09-50.45,21.74-56.44,70.69-101.31,128.21-117.55,3.58-1,7.36-1.92,11-1,5.11,1.24,8.72,5.71,11.94,9.92C769.17,195.59,777.44,207,777,220c-.52,15.13-12.55,27-24.06,36.59a581.09,581.09,0,0,1-100.42,67.45c-4.88,2.58-10.11,5.16-15.6,4.79-8.91-.61-16.06-10.38-14-19.22s12.65-14.44,20.92-11c4.17,1.72,7.92,5.35,12.41,4.9,6.27-.62,9-9,7.16-15.12s-6.36-11-9-16.83-2.57-14,2.91-17.21c5.69-3.29,12.77,1.18,16.9,6.33s7.61,11.56,13.78,13.77c9.12,3.26,19.66-7.51,16.38-16.74-3.77-10.62-20.48-17.68-15.48-27.75,3.29-6.62,13.48-5.35,18.9-.39s8.43,12.22,14,17,15.94,5.45,18.68-1.41c4.31-10.78-15.13-17.19-16.12-28.78-.85-10,13.72-14.82,21.83-9.14s10.73,16.44,12.57,26.26"/><path class="cls-2" d="M809.87,458.16l-35.18-56.07c-3.27-5.2-6.68-10.56-11.73-14s-12.25-4.43-17.08-.68c-7,5.41-5.25,16.39-2.28,24.76a190.43,190.43,0,0,0,23.52,45.52c3.27,4.65,6.85,9.39,7.84,15s-1.68,12.41-7.15,13.76c-6.53,1.62-12-4.82-15.8-10.49L730.8,443.88c-5.41-8.2-11.19-16.74-19.82-21.29s-21-3.46-26,5c-5.39,9-.16,20.46,5,29.58l29.26,51.39c1.92,3.37,3.88,7.49,2.16,11-1.22,2.47-4,3.77-6.69,4.2-11.67,1.88-21.6-9.06-26.24-20.09-3.2-7.6-7.35-17.43-15.47-17-9,.5-11.36,13.82-7.07,21.9s12.19,14,15.2,22.64-4.15,21.29-12.43,17.63c-6.58-2.9-7-13.2-13.32-16.62-4.87-2.64-11.3.39-14.06,5.25s-2.64,10.86-1.69,16.39c.92,5.31,2.52,10.5,10.61,36.17a1472.34,1472.34,0,0,1,207.4-137c9.32-5.08,21.82-9.71,29.47-2.31,9.07,8.76,1.12,24.67-9.29,31.72s-23.75,11.42-29.47,22.72c-6.2,12.26-.51,27.26,7.11,38.66s17.41,22,20.26,35.48-5.72,30.65-19.27,29.86c-12.93-.76-19.4-15.7-24.45-27.81a176.78,176.78,0,0,0-24.69-41.91c-3.86-4.85-8.79-9.89-14.94-9.77-8.82.16-13.9,11.27-12.14,20.06s7.81,15.91,12.32,23.61a73,73,0,0,1,9.91,36.19c0,2.06-.14,4.33-1.57,5.79-3.38,3.49-8.84-.91-11.57-4.95l-26-38.52c-2.55-3.77-5.65-7.89-10.13-8.39-5.08-.55-9.56,4.25-10.38,9.37s1.09,10.27,3.42,14.88c7.56,15,20.29,30.81,14.27,46.49C735.87,633,721.69,606,712.43,582.82"/><path class="cls-2" d="M494.76,752.19a1238.54,1238.54,0,0,1-5.35-165c.38-11.12,1.34-23.31,9-31.27,6.92-7.21,17.5-9,27.32-10.42,15.49-2.25,34.26-3.19,43.53,9.61,4.47,6.17,5.47,14.16,6.32,21.77l15.15,134.41c1.88,16.68,2,37.2-12.14,45.88-5.43,3.33-12,4.08-18.28,4.75-8.55.92-17.86,1.66-25.08-3.07-8.91-5.86-11.36-17.76-13-28.4q-7.05-44.9-14.12-89.78c-2.51-16-4.94-32.84.85-47.9s23-26.89,37.7-20.73c16.12,6.75,18.91,28.32,19.25,46l1.69,88.78c.16,8.71-.78,19.34-8.55,23-6.33,3-14.19-.79-18.15-6.65S535.88,710,535,703c-4.24-32.56-8.48-65.6-4-98.12,5.06-2.76,11.66.43,14.72,5.37s3.48,11,3.82,16.85l4,68.32c.11,1.86.45,4.08,2.12,4.83s3.59-2.31,1.83-2.84"/><path class="cls-2" d="M600.47,554.14l12.06,73.11c.16,1,.55,2.22,1.53,2.35s1-2,.12-1.49"/><path class="cls-2" d="M622.64,573.68l6.58,22.83"/><path class="cls-2" d="M515.78,220.56c32.42-5.61,65.48-7.84,97.32-16.2s63.23-23.75,83.19-50.28c5.26-7,9.75-15,10.72-23.7,1.64-14.69-6.73-28.42-15-40.62-5.91-8.78-12.1-17.65-20.54-24-8.27-6.18-18.23-9.53-28.11-12.4C600,40.79,552.59,36,510.28,51.93c-4.85,1.83-10.36,5-10.57,10.22-.26,6.89,8.43,9.95,15.21,10.35,21.92,1.28,43.74-3,65.58-5.2s44.69-2.37,64.8,6.56,36.8,28.89,36.19,51.16c-.78,28.89-28.22,49.18-54.42,60.45-16.31,7-33.51,12.46-51.2,13.23-15.17.65-30.25-2.14-45.18-4.92-5.42-1-11.58-2.55-14.07-7.54-3.48-7,3.4-15.37,10.94-16.88s15.17,1.32,22.71,2.87c20.47,4.22,41.55-1,61.79-6.24,12.08-3.11,24.58-6.43,34.31-14.34s15.94-21.79,11.25-33.52c-4.39-11-16.36-16.54-27.49-20.17a233.37,233.37,0,0,0-90.5-10.78c-6.31.5-12.87,1.35-18.13,4.94s-8.7,10.69-6.23,16.6l72.59-3.06c12.39-.52,25.64-.83,36.17,5.83s15.84,23.14,7.09,32.06c-3.39,3.47-8.15,5.13-12.76,6.51A191.94,191.94,0,0,1,513,151.11c3.28-11,17.52-13,28.84-13l62.1.13c5.73,0,12.42-.47,15.59-5.32,4.22-6.45-2-15.58-9.43-17.27s-15,1.41-22.23,3.93a160.05,160.05,0,0,1-76,7.18"/><path class="cls-2" d="M35,654.55l26.77.67c2.4.06,5.19.33,6.51,2.37a7.69,7.69,0,0,1,.78,4.44c-1.42,54.15-7,108.57-.22,162.29,1,7.68,6.47,17.83,13.29,14.35,3.46-1.77,4.44-6.23,5-10.12q4.48-29.62,9-59.26c11.8,1.81,17.59,16.4,16.1,28.42-.54,4.4-1.67,9.21.57,13,3.6,6.14,13.71,4.5,17.67-1.4s3.42-13.73,2.08-20.74-3.3-14.23-1.66-21.17,8.59-13.25,15.29-11.09c7.79,2.5,8.9,13,8.55,21.34l-.87,20.79c-.26,6.18,0,13.48,5,17,5.25,3.66,12.93.53,16.46-4.84s4-12.16,4.42-18.6c12,4.68,18.56,20.14,13.72,32.2-4.58,11.41-17,17.72-29,19.55s-24.25.15-36.37.76"/><path class="cls-2" d="M81.6,668.22l25.71,8.64c3.15,1.06,6.54,2.3,8.35,5.12,3.77,5.87-2.25,13.72-8.89,15.64s-13.87.6-20.52,2.48a6.76,6.76,0,0,0-4,2.43c-3,4.5,4.19,8.79,9.52,9.18,28.67,2.11,57.93-4.51,86,1.76,4.64,1,9.41,2.54,12.73,6s4.57,9.35,1.6,13.11c-2.3,2.9-6.27,3.71-9.9,4.26a327.81,327.81,0,0,1-91.31.91"/><path class="cls-2" d="M219.25,875l100.24-4.68c3.36-.15,7.12-.5,9.28-3.11,2.44-3,1.57-7.72-1.07-10.49s-6.53-3.91-10.29-4.41c-17.84-2.36-35.34,7.1-53.32,6.66a49.45,49.45,0,0,1-29.86-11.06c-12.06-9.82-19-25-21.4-40.55s-.54-31.38,2.49-46.77c2-10.2,4.62-20.5,10.07-29.31s14.18-16,24.35-17.37c4.85-.63,9.76.09,14.6.8L301,720.13c3.76.56,8.3,1.77,9.28,5.51,1.1,4.19-3.24,7.7-7.17,9.4-20.65,9-47.63,5.45-62.39,22.62-13.48,15.68-8.85,39.66-2.89,59.56,1.43,4.75,3,9.73,6.64,13.08,3.87,3.57,9.33,4.62,14.49,5.53,16,2.81,33.84,5.27,47.32-3.94,15.55-10.61,18.86-32.78,15.56-51.5-1-5.94-2.79-12.11-7.1-16.25-7-6.75-18.09-5.84-27.69-4.49l-18.84,2.65c-3.63.51-7.59,1.2-10,4-2,2.41-2.4,5.8-2.58,9a168.77,168.77,0,0,0,.89,29.73,20,20,0,0,0,2,7.63c2.54,4.49,7.94,6.46,13,7,7.32.74,15.09-1,20.69-5.84s8.55-13.07,6.2-20.15-10.52-11.95-17.49-9.56-10.37,12.48-5.57,18.14"/><path class="cls-2" d="M360,739.42c-9,1.84-19,3.34-26.8-1.61s-9.45-19.13-.93-22.6c7.71-3.14,17.76,4.36,24.22-.94,5.64-4.62,1.72-14.8-5-17.57s-14.28-.76-21.39.69a131.1,131.1,0,0,1-59.26-1.68c-6-1.58-13.11-5.19-12.94-11.49.11-4.27,3.91-7.69,8-8.8s8.38-.43,12.55.14c26.18,3.6,53.56,3,78-7,2.64-1.09,5.5-2.55,6.49-5.27,1.62-4.45-2.77-8.82-7.08-10.62-21.48-9-45.46,10.15-68.33,6-8.38-1.5-17.09-7.86-16.84-16.5.18-6.49,5.52-11.88,11.53-14.1s12.59-2,19-1.64l57.43,2.75c4.94.24,10.2.59,14.19,3.54,7,5.18,7,15.58,6.3,24.33l-6,75.92c-.57,7.15,0,16.29,6.68,18.76,7.21,2.68,13.85-5.54,15.86-13.07s2.75-16.41,9-20.95"/><path class="cls-2" d="M392,699.08a123.09,123.09,0,0,0,66.89.9c4.93-1.32,10.36-3.49,12.21-8.31,1.73-4.51-.57-9.84-4.35-12.78s-8.7-3.92-13.46-4.24c-20.39-1.37-43.79,6.9-59.56-6.3.05-7.26,7.89-12.16,15-12.51s14.08,2.29,21.2,3,15.47-1.45,18.47-8a11.45,11.45,0,0,0,1-4.15c.43-7.94-7.63-14.13-15.45-14.8S418.6,634.37,411.2,637s-15.63,4.69-22.95,1.83"/><path class="cls-2" d="M461.8,630.62l4,21.6c3.79,2.8,9.61,1.15,12.37-2.69s2.89-9.12,1.52-13.67c-1.93-6.43-9.62-12.31-14.79-8.1"/><path class="cls-2" d="M728.74,704.8l4.79,144.43c.26,7.9-1.41,18.33-9.12,19.44-8.85,1.28-12.61-11-12.92-20l-4.11-121c-.86-25.35-2-51.74-13.9-74s-38.1-38.93-61.87-31.12a179,179,0,0,0,49.24,47.39c-6.89,7.1-18.31,6.43-27.81,3.91s-19.3-6.4-28.83-4c-5,1.24-10.1,5.35-9.49,10.52.66,5.63,7.17,8.13,12.6,9.46l43.51,10.63c4.23,1,8.69,2.2,11.73,5.36s3.79,9,.35,11.73a10.39,10.39,0,0,1-4.79,1.77c-22,3.8-48.85-5.79-64.47,10.45a12.13,12.13,0,0,0-3.33,5.49c-1.27,5.47,3.49,10.57,8.55,12.86,8.81,4,18.91,3,28.55,2.64s20.17.36,27.43,6.81S683,778,674.37,782.4c-3.81,1.93-8.31,1.53-12.55,1.09l-22.45-2.36c-5.77-.61-11.85-1.17-17.15,1.22s-9.3,8.83-7,14.23c3,7.13,13.06,6.7,20.44,4.67,11.19-3.08,23.07-7.09,34.08-3.4s18.32,19.54,9.79,27.51c-4.59,4.3-11.51,4.44-17.76,4.33L622,829c-5.38-.09-11.16-.07-15.58,3-8.37,5.86-6.74,20,.81,26.89s18.48,8.27,28.64,8.36a164.1,164.1,0,0,0,60.61-11.06"/><path class="cls-2" d="M754.22,816.56a281,281,0,0,1,1.3-119.24c2-8.86,4.51-17.67,8.46-25.83,16.08-33.29,56.22-50.85,92.23-44.69s66.66,33.16,82.72,66.45,18.71,72.07,12.92,108.67a14.64,14.64,0,0,1-1.55,5.25c-3.36,5.64-12.63,3.9-16.33-1.51s-3.54-12.53-3.44-19.12c.49-31.38-4-64-20.94-90.28s-48.4-44.59-78.72-38.43c-29.07,5.91-50.76,32.93-58,62.12s-2.37,60.11,5.71,89.07c.69,2.47,1.47,5.05,3.29,6.82,4.78,4.65,13.43.22,15.49-6.16s-.11-13.27-1.84-19.76c-7.56-28.24-6-60.76,11.9-83.74s54.65-31.21,76.41-12c15.7,13.84,19.76,36.69,21.24,57.74q1.11,15.92,1,31.89c0,6.32-.28,12.87-3.07,18.52s-8.84,10.12-15,9-10.33-7.44-11.36-13.73.3-12.69,1-19a99.4,99.4,0,0,0-5.37-45.14c-4-11-11.55-22.37-23-24-7-1-14,1.88-19.61,6.17-22.39,17.14-22.68,50.54-20.86,78.94.59,9.23,2.86,20.65,11.67,23,10.22,2.72,18.25-10.48,17-21.14s-7.53-20.14-9.1-30.75,5.38-24.15,15.82-22.45S857.16,759,857,769.84l-.76,45.06"/><path class="cls-2" d="M692.58,26.15c-4.06-.74-8,2.71-9.18,6.71s-.4,8.33.62,12.38c1.39,5.52,3.64,11.53,8.72,14,5.74,2.75,13-.6,16.37-6.06s3.68-12.32,2.91-18.72c-.79-6.56-1.32-15.41,4.86-17.49,5.25-1.78,10.18,3.71,12,9,3.23,9.55,1.83,20,1.19,30a192,192,0,0,0,8.67,70.53c1,3.25,3.7,7.22,6.77,5.84a6,6,0,0,0,2.43-2.66,78,78,0,0,0,10.41-44.3c-.89-13.38-5-27.89,1.67-39.45a9.73,9.73,0,0,1,4.36-4.38c3.26-1.35,7,.43,9.47,3,6.15,6.59,5.81,16.83,5.09,25.88L773,143.66c-.2,2.58-.49,5.37-2.22,7.28-2.18,2.4-5.8,2.54-9,2.52L724,153.15c-1.44,0-3.27.25-3.67,1.65s2.68,1.76,2,.45"/><path class="cls-2" d="M845,240.43q-3.46-59.76-12.51-119c-.75-5-1.62-10.13-4.53-14.2s-8.52-6.6-13-4.37c-5.67,2.85-6,10.81-5.46,17.21q4.89,61.23,9.79,122.46c1,13.1,4,28.93,16.25,33.31,10.52,3.77,22.29-4.21,26.88-14.53s3.89-22.15,3.1-33.45L861.32,167c-1.38-19.73-2.77-39.51-6.21-59-2.45-13.82-7.39-29.27-20.09-34.83-14.37-6.29-31.52,4.47-38.1,18.88s-5.45,31.07-4.19,46.91L803,268.25c.58,7.32,1.56,15.44,7.1,20.16,5.13,4.38,12.52,4.35,19.22,4.1,20.65-.76,45-3.74,54.91-22.18C889.77,260,889,247.52,888,235.8l-7-85c-.42-5.14-.44-11.25,3.66-14.3,4.39-3.27,11-.56,14,4.1s3.11,10.5,3.21,16q.75,40.54,1.51,81.11c10.32-1.92,16.52-13.36,17-24s-3.11-21-5.12-31.41a105.31,105.31,0,0,1-.85-34.66c.46-3.25,1.2-6.72,3.6-8.93s5.46-2.56,8.47-3l15.89-2.13c4-.53,8.23-1,11.76.9,5.19,2.82,6.69,9.56,7.49,15.5a365.06,365.06,0,0,1,3.15,39.63,32.94,32.94,0,0,1-29.95,2.73c-3.16-7.64-6.38-16-4.35-24s12-14.29,18.6-9.45"/><path class="cls-2" d="M797.43,41.94a48.14,48.14,0,0,0,41.78-13.61c4.64-4.73,10.76-11,16.53-7.82,4.41,2.44,4.65,8.68,4.15,13.75-1.46,15.05-4.23,30.24-1.94,45.19s11,30.06,25.26,34.57c4.37,1.39,9.9,1.35,12.67-2.35,1.61-2.17,1.86-5.06,1.76-7.77-.73-20.4-17.5-37.58-17.95-58-.2-9.12,6-20.15,14.85-18.47,5.67,1.07,9.11,6.87,11.31,12.29,8.44,20.73,9.78,44.61,22.36,63.06,4.48,6.56,11.93,12.68,19.5,10.51,5.3-1.52,8.82-6.76,10.42-12.12,3.32-11.17.1-23.35-5.13-33.74s-12.4-19.67-17.73-30c-2.58-5-4.77-10.51-4.16-16.11S936,10.2,941.55,10c6.66-.22,11.19,6.56,14.23,12.58A415.12,415.12,0,0,1,978.54,77"/><path class="cls-2" d="M983.4,154.83c-12.47,15.14-15.74,37.51-8.15,55.68-7.39,5.49-17.6,2.42-26.67,1.14S927.44,213.8,927,223.09C926.54,234,941.52,237,952.29,236.6s25.78,4.39,23.56,15.1l-58.28,7.15c-3.32.41-6.77.86-9.59,2.69-10.3,6.67-2.41,24.66,9.43,27.73s24-2.33,36-4.62,27.43.65,31.11,12.48C971.66,317.83,932,298.41,919,319c2.94,10.95,17.48,12.93,28.5,11s23.76-5.15,32.31,2.18c4.84,8,.16,20.09-8.74,22.6-7.31,2.07-16.18-1.39-22.13,3.39s-4.13,15.29,1.83,20.12,14.22,5.35,21.83,4.89c6.1-.38,12.93-1,17.58,3,5.16,4.44,5,13.07,1.2,18.73s-10.31,8.84-16.76,10.88c-34.3,10.83-71.75-4.06-107.17,2-10.23,1.74-20.67,5.22-30.72,2.64-6.79-1.75-12.67-6.16-17.51-11.32-18.94-20.21-22.31-53.68-7.78-77.35s45.6-35.37,71.82-27c3.22,1,6.5,2.42,8.62,5.08,6.6,8.3-3.21,20.59-13.45,23s-21.59.25-30.93,5.14c-10.82,5.67-15.47,19.51-14.08,31.79s7.58,23.4,13.77,34.06c12.29,3.72,24.94,7.48,37.73,6.4s25.93-8.11,30.58-20.25c5.1-13.33-2.29-29.74-15-35.95s-28.88-2.66-39.12,7.15a18.19,18.19,0,0,0-5.28,7.91c-2.6,9.34,6.93,17.76,16.14,20.37,5.37,1.52,11.37,2,16.34-.62s8.27-9,6-14.16-10.85-6.34-13.31-1.25"/><path class="cls-2" d="M920.31,458.55A62.49,62.49,0,0,1,947,442.89"/><path class="cls-2" d="M862.28,521.79A997.62,997.62,0,0,1,969.7,454c6-3.28,13.41-6.53,19.4-3.16,6.69,3.75,7.15,14,3,20.51s-11.37,10.19-18.16,13.74a527.33,527.33,0,0,0-89.08,58.69c-5.21,4.25-10.63,12.17-5.82,16.88a9.45,9.45,0,0,0,5.56,2.27c10.83,1.36,20.93-5.17,29.95-11.41l62.61-43.33c8-5.55,19.7-10.82,26.36-3.66,4.18,4.51,3.55,12,.22,17.23s-8.7,8.59-13.9,11.82l-63,39.18c-8.32,5.18-17.84,12.89-16,22.62.58,3,2.24,5.68,3.86,8.26q9.7,15.44,19.42,30.86c1.43,2.28,3,4.69,5.51,5.65,4.53,1.74,9.08-2.1,12.82-5.23,8.66-7.25,19-12,28.7-17.8S1000.21,604,1005,593.73s3.54-24.2-5.35-31.16c-6.65-5.19-16-5.48-24-2.85S960.73,567.5,954,572.56c-6.15,4.62-12.63,9.68-15.14,17s1.22,17.33,8.82,18.18c4,.45,7.79-1.64,11.27-3.66l33.59-19.48"/><path class="cls-2" d="M534.5,966c-2.28-21,6.38-43,22.35-56.61-13.46-1.18-25-9.82-35.63-18.29C464.56,845.88,409.69,795.29,342,770.34a9.26,9.26,0,0,0-4.63-.83c-6.16,1.06-4.2,10.68-.34,15.67a130.61,130.61,0,0,0,34.21,30.92,137,137,0,0,0-31.45,38.64c-2.93,5.35-5.55,11.78-3.21,17.43,4.32,10.43,20.14,7.88,28.64.56,8-6.86,13.63-16,20.8-23.72s16.89-14.22,27.28-13.22c3.47.34,7,1.65,9.16,4.45,5.89,7.75-2.76,17.87-9.31,25.06a69.09,69.09,0,0,0-14.81,26c-1.49,4.8-2.33,10.43.55,14.53,3.76,5.36,11.95,5.13,17.67,2,10.89-5.91,16.08-18.68,24.73-27.63s26.51-11.94,31.2-.34c4.64,11.44-8.42,21.31-17.3,29.77a57.2,57.2,0,0,0-17.45,38.78c-.44,11.23,5.66,25.13,16.72,24.64,7-.32,12.2-6.33,16.48-11.92q21.76-28.39,41.17-58.53"/><path class="cls-2" d="M400.66,766.32a583.13,583.13,0,0,1,39.18-44.64c6.44-6.62,18-12.89,23.43-5.39,3.35,4.63,1.15,11.1-1.15,16.34l-22.61,51.61c-3,6.76-5.73,15.31-1,21,5.43,6.53,16.4,3.22,22.05-3.12s8.57-14.88,14.56-20.87A27.06,27.06,0,0,1,498,773.68c5.69,16-.56,33.73-8.69,48.57-2.34,4.28-4.94,8.83-4.54,13.71s5.49,9.58,9.86,7.5c1.9-.9,3.13-2.78,4.25-4.59,6.65-10.73,12.93-21.88,21.62-31s20.32-16.16,32.81-16.22a8.34,8.34,0,0,1,4.77,1.06,8.23,8.23,0,0,1,2.84,4.56c3.17,10.29-.33,21.61-6,30.75s-13.32,16.78-19.65,25.44c-2,2.81-4.06,6.09-3.62,9.56.78,6.21,9,8.7,14.73,6.41s9.75-7.48,14.35-11.66,11-7.56,16.76-5.22a43.93,43.93,0,0,1-14.77,40.54"/><path class="cls-2" d="M579.29,783.31,587,800.85"/><path class="cls-2" d="M327.36,840.31l13.81-17.17"/><path class="cls-2" d="M175.75,863l21,11.1"/><path class="cls-2" d="M171.47,757.46l-2.15,22.18a31.41,31.41,0,0,0,16-2.68l1.32-21.33a16.73,16.73,0,0,0-17.6,5.74"/><path class="cls-2" d="M512.92,244.73a39.43,39.43,0,0,0,2.83,23.76,64.93,64.93,0,0,1,35.52-13.08c3.78-7.87-4-17.58-12.58-18.31s-16.55,4.76-22.43,11.16"/><path class="cls-2" d="M77.27,861.58c18.55-4.39,37.32,4.34,55.12,11.21,30,11.57,61.54,18.25,92.61,26.37,8.11,2.13,18.22,7.47,16.4,15.77-1.88,8.55-13.75,8.68-22.16,6.77L101.86,895.07c-11.1-2.51-24.8-4.18-31.92,4.82-.14,8.57,6.87,15.77,14.65,19.08s16.41,3.73,24.72,5.26c8.48,1.56,16.7,4.31,24.89,7l80.37,26.81c4.71,1.57,10.19,4,10.92,9,.86,5.81-5.63,10-11.37,10.77-14.44,1.92-27.78-7-41-13.21-26.24-12.34-55.82-14.66-84.67-16.79-4.14-.31-9.13-.21-11.34,3.36-1.23,2-1.19,4.48-1.07,6.82a326.51,326.51,0,0,0,3.31,33c.78,5.14,1.78,10.49,4.89,14.62s7.91,6.51,12.71,8.3c23.68,8.82,49.88,6,74.81,2.08,2.07-.33,4.27-.72,5.81-2.16,2-1.89,2.31-5,2.47-7.76.56-10,.11-22.06-8.37-27.19-2.9-1.75-6.32-2.35-9.65-2.88q-32.52-5.25-65.38-7.73a48.42,48.42,0,0,0,2,22.88,470.2,470.2,0,0,0,67.64,5.65"/><path class="cls-2" d="M439.23,1102.85c19.82-64.61-1.72-140.26-52.45-184.16-11.18-9.68-23.94-18-38.3-21.21s-29.42-.93-43.53,3.28c-16.2,4.85-32,12.58-43.48,25.17-10.3,11.3-16.49,25.82-21.16,40.47-14.64,45.9-15.88,96.12-1.94,138.24,8.07.35,14.89-6.83,17.27-14.67s1.47-16.26,1-24.45a201,201,0,0,1,28.45-113.94c6.82-11.28,16.09-22.7,29-24.71,8.47-1.32,16.95,1.74,25,4.74l28.26,10.55c5.91,2.21,12,4.53,16.56,9s7.22,10.82,9.64,16.9c9.25,23.2,18.58,46.71,21.85,71.52s-.16,51.48-14.54,71.81c-4.63-4.27-7.19-10.36-9.05-16.42-6.27-20.42-6.13-42.19-8.2-63.48s-6.93-43.44-21-59.34-39.77-22.83-56.75-10.16c-12.35,9.22-16.91,25.54-20.68,40.63-8.09,32.4-15.88,68.18-1,98,2.83,5.69,9.08,11.73,14.5,8.5,2.87-1.71,3.93-5.34,4.55-8.65,4.49-24-1.5-48.77-.95-73.24.22-9.91,1.65-20.14,6.84-28.53s14.9-14.5,24.54-12.89c14.26,2.38,21.16,18.85,24.36,33.16,4.82,21.51,7.06,43.54,8.58,65.55.42,6.16.69,12.77-2.51,18s-11.27,7.78-15.43,3.28c-2.75-3-2.7-7.53-2.52-11.61,1.28-28.57.73-58.49-12.29-83.86-1.5-2.92-3.94-6.18-7.15-5.72-3.69.53-4.85,5.29-5.15,9.06L312.79,1124"/><path class="cls-2" d="M477.37,1022.92l8.7-29a14.49,14.49,0,0,1,16.12,7.61c1.54,3.2,1.84,6.86,2.12,10.41l.95,12c.18,2.36.35,4.85-.61,7-1.58,3.59-5.65,5.17-9.33,6.4l-17.64,5.9c-2.56.86-5.39,1.71-7.89.68s-4-3.69-5.21-6.14c-3.66-7.24-7.4-14.7-8.16-22.8-1.25-13.22,6-26.4,16.83-33.9s24.56-9.72,37.53-8.08c3,.37,6,1,8.28,3,3.45,3.07,3.83,8.28,3.93,12.93q.39,16.74.34,33.49c0,5.46-.12,11.15-2.56,16-2.87,5.7-8.47,9.35-13.82,12.73l-43.43,27.45c-3.37,2.13-7.1,4.83-7.45,8.85-.38,4.45,4,8.15,8.36,8.66s8.66-1.27,12.72-3l48.18-20.71"/><path class="cls-2" d="M609,1053a175.44,175.44,0,0,1-47.74-3c-8.15-1.66-18-6.34-17.49-14.76,14.83-10.51,34.08-12.05,52.14-10.9s36.11,4.65,54.12,2.82a104.12,104.12,0,0,0,33.46-9.49c3-1.37,6-3,7.7-5.78,2-3.26,1.84-7.39,1.58-11.23q-1.8-25.9-4.67-51.73c-.7-6.29-1.54-12.85-5.05-18.09s-10.55-8.61-16.17-5.86c-6.85,3.35-7.58,12.79-7.34,20.51l1,33.09c.13,4,.22,8.25-1.42,11.94s-5.57,6.67-9.46,5.78c-5.44-1.24-7-8.24-7.38-13.88l-6-79.9c-.46-6.15-1.28-13-6-16.91-6.63-5.49-17.42-1.25-21.68,6.28s-3.76,16.8-2.72,25.42c2.46,20.28,7.22,41.09,2,60.83-1.27,4.81-3.77,10.08-8.54,11.25-6.53,1.62-11.86-5.41-14.28-11.77a75.1,75.1,0,0,1-4.77-31.42c.24-3.66.72-7.45-.42-10.93s-4.58-6.55-8.12-5.78a9.07,9.07,0,0,0-4.46,3c-8.5,9.22-8.88,23.39-7,35.88s5.43,25.15,3,37.55"/><path class="cls-2" d="M672.41,885.25l-13.47,11.53c6.77,2.25,6.35,13.44,12.72,16.67,8.32,4.2,15.57-9.06,24.82-10a35.19,35.19,0,0,0-26.13-14.61"/><path class="cls-2" d="M713.29,979a207.56,207.56,0,0,1-4.6,45.63,222.13,222.13,0,0,0,80.24-58.28l-49.33-6c-8.89-1.09-18-2.25-25.9-6.58s-14.33-12.6-13.87-21.68c.61-11.88,13.17-20.43,24.87-19.86s22.06,8,30.06,16.68c6.58,7.14,12.61,15.69,21.75,18.78s21.88-3.86,19.8-13.41c-.78-3.56-3.38-6.41-6.11-8.79-10.35-9-23.92-13.92-33.3-24s-11.79-29.31.21-35.9c8.8-4.82,20.13.4,26.33,8.36s8.93,18.05,13.14,27.25c4.39,9.64,15.85,19.52,23.95,12.8,5.64-4.67,4.15-14.17-.36-20S809,884.5,804,879.15a35.89,35.89,0,0,1-7.93-34.26c1.65-5.41,5.17-10.82,10.59-12.16,7.79-1.91,15,5.65,17.18,13.49s1.07,16.25,2.57,24.24a38.19,38.19,0,0,0,18.29,25.78c11.13-10.52,10.16-28.2,11.93-43.53s12.24-33.45,27.16-30.49c11.41,2.27,17,16.67,14.26,28.14s-11.19,20.47-19.28,28.94-16.47,17.59-19,29.1c13.51,11.75,33.63-13.54,50.26-7.15,12.91,5,11.11,26.5-.68,33.78s-27.18,3.79-39.58-2.35c-6.4-3.17-12.88-7.09-20-7s-14.71,6.48-13,13.5c1.31,5.38,7.11,8.21,12.41,9.55,16.11,4.07,35.73,2.29,46.24,15.33,7.66,9.51,6.28,25.17-2.92,33.15s-24.65,6.93-32.71-2.24c-6.91-7.85-7.93-19.21-12.09-28.86s-15.43-18.38-24.28-12.89c-7.26,4.5-7.26,15.67-3.1,23.19s11.22,12.93,16.42,19.76c9.91,13,11.87,33.13,1.27,45.59s-34.13,11.3-40.65-3.77c-2.55-5.91-2.32-12.62-2-19.07l2.33-53.21"/><path class="cls-2" d="M768.7,1013.35l.89,18.29"/><path class="cls-2" d="M986,655.78c-6.9,0-14,.08-20.45,2.4s-12.48,7.38-14,14.2a176.83,176.83,0,0,1,32.71,6.23c4,1.14,8.5,3.07,9.42,7.15,1.3,5.77-5.85,9.94-11.68,9.74s-11.79-2.56-17.33-.69c-7.19,2.42-10.42,12.65-6,18.87,3.4,4.74,9.57,6.39,15.29,7.14s11.78,1,16.69,4.12,7.92,10.26,4.44,14.94c-6.13,8.23-20-1.75-29,3-7.13,3.78-6.6,15.27-.87,21s14.3,7.14,22.31,7.93a10.76,10.76,0,0,1,5.31,1.46c4,2.79,2.24,9.61-1.78,12.3s-9.15,2.68-13.93,3.32-10.07,2.51-11.92,7c-2.88,7,4.92,14.15,12.32,15.4s15.29-.52,22.31,2.15"/><path class="cls-2" d="M917.44,883.14A64.75,64.75,0,0,1,909.1,842c.45-3.38,1.28-6.94,3.68-9.33,4.43-4.4,12.36-2.59,16.51,2.09s5.48,11.19,6.57,17.39a659.28,659.28,0,0,1,9.84,118.19c-.07,10.87-.24,22.43,5.4,31.67,10.15,16.6,33.1,17.71,52.33,16.93q2.33-76.41-2.59-152.82c-.51-8-1.14-16.14-4.43-23.39s-9.86-13.52-17.71-14.07c-11.09-.79-20.18,10.1-22.1,21.21s1.31,22.38,3.68,33.41a170.11,170.11,0,0,1,4.05,33.11c.3,19.44-3.28,40.27,5.93,57.32,4.56,8.42,16.36,15.2,22.94,8.29,3.84-4,3.42-10.44,2.75-16q-6.16-51-12.32-102"/><path class="cls-2" d="M45.25,1033c18.93,15.15,45.81,11.9,69.77,9.19a657.25,657.25,0,0,1,79.34-4.11c3.1,0,6.4.14,9,1.9,3.42,2.34,4.54,6.84,5.39,10.94,1.87,8.93,3.59,18.85-1,26.72s-18.31,9.85-21.71,1.39c-2.87-7.16,1.93-18.71-5.32-21.09-2.45-.81-5.17.29-7.16,2-7.54,6.38-6.08,18.19-5.75,28.15s-4.22,22.81-14,22.37c-7.08-.33-11.76-8-12.48-15.21s1.14-14.36.7-21.55-4.37-15.13-11.37-16.32c-7.8-1.32-14.44,6.75-15.67,14.69s1,16,1.31,24-2.28,17.26-9.53,20.5-16.2-1.41-20.43-8.32-5-15.35-5.62-23.45L79,1063.57"/><path class="cls-2" d="M18.66,836.63c8.23-5.08,20-9.75,26.38-2.44,2.36,2.71,3.19,6.42,3.88,10A335.83,335.83,0,0,1,44,992.91c-1.51,5.73-3.53,11.92-8.5,15-6.71,4.21-15.35.92-22.51-2.43"/><path class="cls-2" d="M26.69,680c4.06-6,14.2-5.35,18.26.63s1.8,15-4.06,19.2-14.23,3.64-20.21-.33"/><path class="cls-2" d="M30.78,715.82c10.24-.89,19.51,10.5,16.74,20.54S31,751.24,22.7,745.08"/><path class="cls-2" d="M28.6,770.48A61.07,61.07,0,0,1,48.75,781.3c.67,14.23-12.51,27.49-26.51,26.68"/><path class="cls-2" d="M34.69,1174l159.11-47.75c6.77-2,16-3.11,19.16,3.29,4.13,8.24-7.11,15.4-15.9,17.82a952.28,952.28,0,0,0-155.94,58c-3.79,1.8-7.83,3.87-9.75,7.64-3.82,7.5,3.78,16.75,12,17.79s16.15-3.24,23.49-7.21a571.51,571.51,0,0,1,144.54-54.46c5.08,5.7,2.91,15.33-2.51,20.7s-13.07,7.57-20.34,9.73A618.62,618.62,0,0,0,79.3,1243.72c-8.55,4.44-18.42,12.16-15.85,21.56,2.47,9.06,14.74,10.88,23.51,7.86,18.23-6.3,30.12-24.42,47.47-32.92,6-2.93,14.49-4,18.07,1.7,2.3,3.65,1.39,8.4.39,12.61l-7.55,31.88c17.26-3.55,27.55-21,37.25-35.87,22.58-34.76,52.49-63.86,82.13-92.63,6.65-6.46,17.32-13.07,24-6.63-13.63,42.45-51.91,71.72-72.52,111.16-4.9,9.39-5.91,25.13,4.45,26.67,3.24.49,6.5-.92,9.18-2.84,10.66-7.63,13.76-22,20.71-33.22s24.36-18.86,32.16-8.25c8.7,11.83-4.31,34.36,8.6,41.18,7.63,4,17-3.79,18.51-12.39s-2-17.18-4.47-25.55c-8.82-30-4.57-62.09-.24-93,1.16-8.37,2.57-17.27,8.12-23.56,4.7-5.34,11.83-8,18.87-8.51,28.35-2.1,50.29,27.37,54.36,55.92s-3.74,57.37-4.6,86.21c-.23,7.37,1.18,16.5,8.05,18.9,10.13,3.55,16.63-11,17.43-21.8A364.27,364.27,0,0,0,406,1194"/><path class="cls-2" d="M324.23,1287.49l-8-107.08c-.47-6.25-.84-12.94,2.29-18.35,5.94-10.25,20.31-10.21,31.95-8.88,2.5.28,5.26.7,6.88,2.66,1.2,1.47,1.49,3.47,1.72,5.36A677.28,677.28,0,0,1,362.38,1292"/><path class="cls-2" d="M342.86,1183.21q.52,52.17-2.48,104.3"/><path class="cls-2" d="M595.14,1070q-78.76,29.34-155.87,63c-5.16,2.25-10.46,4.62-14.32,8.75s-5.93,10.54-3.49,15.67c4.71,9.89,19.22,6.8,29.06,2.2l108.76-50.85c16.25-7.6,33.57-15.38,51.33-13.18-14,27.06-43.36,41.33-70.37,54.83q-34,17-66.94,36.06c-4.51,2.61-9.72,7.68-7,12.18a8.44,8.44,0,0,0,4.68,3.2c17.54,6.12,35.75-5.47,51.37-15.62a472.93,472.93,0,0,1,50.9-28.79c9.94-4.83,24.19-8.21,30,1.27,2.36,3.82,2.39,8.6,2.33,13.1-.11,10.67-.59,22.33-7.51,30.36-4.6,5.33-11.33,8.14-17.8,10.78-16.21,6.59-34.08,13.28-50.69,7.81-4-12.32,7.79-23.91,19.09-30A129.38,129.38,0,0,1,584.33,1178c.51,10.24-7.65,20.15-17.66,21.47"/><path class="cls-2" d="M627.39,1050.92a1017.26,1017.26,0,0,0,.83,136.25c.62,8.41,4.51,19.56,12.72,18.27,4.57-.71,7.45-5.32,9.16-9.68,6.2-15.8,4.88-33.46,3.47-50.41l-3.91-46.79c-1-11.66-1.8-24.06,3.61-34.4,10.23-19.53,36.35-22,58.14-21.93l77.17.14c1.84,0,3.84.06,5.28,1.23s1.92,3.09,2.3,4.9a163.59,163.59,0,0,1-1.45,74.27c-2,7.78-4.81,15.82-10.91,21-5.37,4.51-12.5,6.1-19.38,7.29a279.77,279.77,0,0,1-68.14,3.34c-4-.29-8.28-.75-11.63-3.07-4-2.78-6-7.68-7.44-12.37a136.6,136.6,0,0,1-6.13-48.87c.37-6.55,1.34-13.42,5.29-18.61,7.38-9.74,21.57-9.78,33.64-8.92l48.77,3.48c2,.14,4.13.37,5.51,1.81a8.09,8.09,0,0,1,1.68,4.64,131.89,131.89,0,0,1-3.39,52.2c-.86,3.16-2.1,6.63-5,8.08-1.86.93-4,.82-6.12.69l-51.06-3.17c-2.49-.15-5.09-.34-7.21-1.66-2.44-1.51-3.84-4.27-4.79-7-5-14.46.84-32,13.42-40.45s30.75-7,41.93,3.25l-7.61,32.46L716,1113"/><path class="cls-2" d="M887,1139.21q-3.43-45.75-8.26-91.39c-.63-5.92-1.39-12.14-4.86-16.93s-10.65-7.37-15.37-3.84a49.42,49.42,0,0,0,1.62,32.55c-13.08-6.89-30.91-2.35-39.24,10-1.55,2.3-2.82,5.26-1.72,7.82,1.17,2.73,4.44,3.71,7.31,4.37l23,5.27c6.58,1.52,14.7,4.9,14.58,11.74-.16,8.21-11.27,10.11-19.36,10-9.56-.19-19.74.61-27.47,6.33s-11.47,17.89-5.43,25.42c5.63,7,16.46,6.72,24.68,3.27s15.38-9.36,23.88-12c2.74-.86,5.74-1.36,8.42-.34,5.84,2.21,7.07,10.74,3.82,16.14s-9.31,8.26-15.14,10.5c-25.29,9.71-55.29,15-70.24,37.9a17.83,17.83,0,0,0-3.26,8.11c-.61,7.47,6.83,13.59,14.18,14.18s14.41-2.76,21-6.18c36.93-19.24,71.83-43.2,111.26-56.38,26.51-8.85,56.38-13.68,75.39-34.41,7.48-8.16,11.78-23,2.62-29.15-5.43-3.65-12.66-1.9-18.86.14a349.19,349.19,0,0,0-57.47,24.88c-7.88,4.28-19.65,7.9-24,0-4.07-7.32,3.73-15.64,11.16-19.36a79.49,79.49,0,0,1,28.38-8.11c5.53-.51,12.12-1,14.87-5.91,2.64-4.67-.24-11-4.79-13.74s-10.16-2.9-15.46-2.69a169.7,169.7,0,0,0-34.58,4.92A49.29,49.29,0,0,1,938,1046.83c-9.77-10.75-26.81-13.81-39.61-7.11"/><path class="cls-2" d="M788.09,1254.32a937.18,937.18,0,0,1,155.32-78.1c-.77,5.43,4.48,9.85,9.62,11.52s10.86,1.92,15.36,5c5.81,3.9,8.05,11.31,9.88,18.13q5,18.66,10,37.31c.55,2,1.1,4.28.3,6.25-1.91,4.74-8.78,3.58-13.43,1.59-6-2.55-12.12-5.25-16.48-10.1-5.61-6.25-7.34-15-10.94-22.66s-11.06-15-19.18-13.08a18.89,18.89,0,0,0-2.79,22c2.14,3.72,5.51,6.54,7.93,10.07s3.82,7.61,5.19,11.66c2.08,6.16,4.16,12.51,3.81,19s-3.7,13.26-9.66,15.67c-9.88,4-20.26-5.73-23.84-15.89s-3.68-21.65-9.17-30.9-20.32-14-26.3-5.11c-4.61,6.86-.59,16,2.92,23.52a98.4,98.4,0,0,1,6.92,18.95c1.31,5.53,1.85,11.76-1.18,16.55-4.66,7.39-16.2,7.49-22.84,1.87s-9-15-9-23.77,2-17.43,2.37-26.19c.26-5.78-.15-11.66,1.08-17.31"/><path class="cls-2" d="M657.75,1225.15c3.18-11.76-4.45-27.15,4.67-35.08,7-6.07,18.66-1.08,22.87,7.21s3.21,18.19,2.25,27.46-1.62,19.28,3.1,27.29c2.9,4.91,9,8.78,14.11,6.3,3.69-1.8,5.36-6.16,6.37-10.19a78.81,78.81,0,0,0,.29-36.93c-1.76-7.54-4.65-15-4.58-22.7s4.21-16.24,11.64-18c8.88-2.15,17.28,6.54,19.06,15.63s-.9,18.38-2.36,27.52a104.62,104.62,0,0,0,6.38,55.48c1.21,3,2.65,6,5.12,8.08,6.73,5.59,17.92.24,20.73-8.11s-.54-17.61-5.37-25c-1.1-1.66-2.31-3.42-2.26-5.41.09-3.31,3.93-5.52,7.14-4.87s5.66,3.27,7.41,6.07c7.61,12.18,5.3,27.93,2.72,42.11"/><path class="cls-2" d="M509.36,1275.66c-1.17-9-9.62-16.07-9.35-25.11.18-6.39,4.94-11.92,10.6-14.72s12.12-3.35,18.41-3.64c32.89-1.54,65.75,2.78,98.41,7.1,15.38,2,32.73,5.26,41.17,18.48,6.39,10,5.67,22.89,4.72,34.78l-.24-7.2"/><path class="cls-2" d="M443.45,1284.29a123.68,123.68,0,0,0-16.52-42.39c-3.36-5.38-7.3-11.64-5.16-17.63,2.46-6.85,12-8.53,18.32-5.14s10.23,10.06,13.74,16.42c9.3,16.88,18.34,34,25.61,51.84"/><path class="cls-2" d="M996.64,1035.57l-38-1.62c2.9,7.26-7,16.67-1.72,22.33,1.75,1.86,4.5,2.24,7,2.46a205,205,0,0,0,38-.1"/><path class="cls-2" d="M911,1004.69a33.08,33.08,0,0,0,11,17.19c7.85.22,14.88-7.8,13.75-15.69s-10.12-13.55-17.58-11.07c-6.54,2.17-10.39,8.86-13.63,15"/><path class="cls-2" d="M903.66,621.94A72.48,72.48,0,0,0,924,652.81"/><path class="cls-2" d="M767.87,838.11l-20.11,5.57a27.94,27.94,0,0,1,25.78,7"/><path class="cls-2" d="M580.35,906.84l14.81-14"/><path class="cls-2" d="M504.26,956.48a22,22,0,0,1,12.55-6"/><path class="cls-2" d="M24.83,1062.73c6.53-3.37,13.92-5.88,21.13-4.54s13.92,7.63,13.69,15.07c-.34,11.51-15.14,16.4-26.34,14.52-5.18-.88-10.31-2.51-15.56-2.23s-10.86,3.1-12.38,8.2c-1.94,6.53,4,13.28,10.6,14.65s13.31-1,19.59-3.45,12.95-4.91,19.57-3.73c4.78.85,9.72,4.73,9.21,9.63-.28,2.75-2.19,5-4.15,6.94-11.78,11.49-28.31,16.82-40.33,28-5.31,5-9.73,13.29-5.54,19.25,2.74,3.9,8.25,4.88,12.79,3.61s8.36-4.36,12-7.35L70.24,1136"/><path class="cls-2" d="M201,999.31,196.52,1020c6.78,4.11,16.57,1.83,20.91-4.87,3.7-5.71,2.87-14.34-2.55-18.4s-14.65-1.46-16.37,5.14"/><path class="cls-2" d="M236.3,1140.29a132.47,132.47,0,0,1,25.92-18.19"/><path class="cls-2" d="M177.82,1219.75,176.76,1238"/><path class="cls-2" d="M399.66,1152.21a78,78,0,0,1,22.26-26.91"/><path class="cls-2" d="M492.9,1219.39l7.33,7.59"/><path class="cls-2" d="M773.26,1177l14.8-7.58"/><path class="cls-2" d="M976.5,1182.13l17,14"/><path class="cls-2" d="M68.88,507a27.43,27.43,0,0,1,30.3-.43"/><path class="cls-2" d="M764.69,173.72l20.08,18.42-1.4-4.32"/><path class="cls-2" d="M656.62,588.22c15.19,1.15,28.75,10.86,38.17,23s15.35,26.66,21.15,41"/></g></g></svg>