<svg xmlns="http://www.w3.org/2000/svg" viewBox="0 0 442.94 667.78"><defs><style>.cls-1{fill:#233e99;}.cls-2{fill:#e7b1b5;}.cls-3{fill:#0091cc;}.cls-4{fill:#0093d8;}.cls-5{fill:#231f20;}.cls-10,.cls-6,.cls-7,.cls-8,.cls-9{fill:#fff;}.cls-7,.cls-8{stroke:#303c95;}.cls-10,.cls-7,.cls-8,.cls-9{stroke-miterlimit:10;}.cls-7{stroke-width:3px;}.cls-9{stroke:#303b94;}.cls-10{stroke:#323e95;}</style></defs><g id="Layer_2" data-name="Layer 2"><g id="Layer_1-2" data-name="Layer 1"><path class="cls-1" d="M40.28,299.71a56,56,0,0,0-27.06-22.95C2.79,310.49-7.45,348,7.58,380c9.49,20.17,27.63,34.61,42.78,51C101.17,485.75,119,569,95.19,639.84c-2.06,6.12-3.67,14.44,1.9,17.71,2.45,1.43,5.49,1.22,8.31,1L133.9,656a1135.14,1135.14,0,0,1,27.53-141.18c1.55-5.92,5-13.2,11.08-12.62s8.09,8.4,8.53,14.52c2.25,31.72,4.51,63.44,6.5,93.61a70.46,70.46,0,0,1-13.62,48.92l40.8.9c4.54-57.63,9.1-115.31,17.28-172.54,2.23-15.62,4.86-31.59,12.69-45.29s22-24.86,37.75-24.72c6.31,9.06,6.11,21.23,3.34,31.92s-7.83,20.68-10.59,31.37c-7.43,28.74,2.26,58.71,8.18,87.8s6.74,63-13.87,84.37c6.71,12,26.09,10,35.1-.38s10.51-25,11.59-38.7q3.92-49.36,7.82-98.72c.44-5.51,4.21-13.07,9.1-10.49,2.47,1.32,3,4.58,3.2,7.38,3.52,47.32,2.54,95-10.78,140.1,5.9,12.64,26.15,11,35.16.35s10-25.71,10.92-39.63c4.86-73.61,19.13-146.45,40-217.22,13.67-46.4,30.32-92.83,31.32-141.19s-17-100.44-58.26-125.74c-45.89-28.17-104.77-16-157-3L117,153.4c-9.81,2.45-20,4.91-29.94,3.22S67.29,147.94,65.63,138c-2.35-14.09,12.17-25.74,26.2-28.42s28.72,0,42.69-3c27.94-6,47.41-37.72,40.13-65.35S134.81-4.42,107.54,4.11c-9.19,2.87-18.76,11-16.4,20.34C93.28,33,103.7,36.13,112.48,36.58s18.66.07,25,6.18c10.12,9.79,1.72,28.3-11.18,33.95S98.6,80,84.52,80.32c-16.35.37-33,4.74-45.94,14.74s-21.66,26.12-20.43,42.43c1.75,23.11,22.34,40.88,44.2,48.58,37.85,13.33,79.72,4.07,117.94-8.18S257,150.28,297.12,151.7s83,25.4,90.79,64.77c1.75,8.8,1.53,18.43-3.09,26.12s-14.52,12.63-22.92,9.48c-6.68-2.51-10.77-9.07-15-14.84-25-34.45-71.16-52.06-112.75-43s-76.26,44.25-84.68,86c-1.78,8.79-2.75,18.39-8.77,25.05s-19.41,6.95-22.15-1.59c-2.36-7.33,4.23-16.87-1.21-22.33-6.13-6.14-15.24,2.8-20.95,9.33-14.22,16.25-40.64,20.08-58.89,8.54"/><path class="cls-2" d="M18.21,292.81c-2.46,4.83-5,9.9-4.89,15.31S17,319.3,22.37,319.87c7.5.79,12.35-9.18,9.66-16.23s-9.76-11.29-16.45-14.77"/><path class="cls-2" d="M107.48,291.26,92.87,316.5c4.95,7.05,17.21,3.4,21-4.35s1.81-16.93-.23-25.3A45.11,45.11,0,0,0,98,303.3"/><path class="cls-2" d="M62.27,357a19.67,19.67,0,0,1,10.86.38A8,8,0,0,1,66,366.81a8,8,0,0,1-8-8.73,2.62,2.62,0,0,1,1-1.92,3.2,3.2,0,0,1,1.79-.31l12.84.36-2.5,3.73"/><path class="cls-3" d="M86.83,338.34a10,10,0,1,1-1.47.59"/><path class="cls-4" d="M41.31,337.94a9.58,9.58,0,0,1,4.94,18.5,9.58,9.58,0,0,1-6.35-18.06"/><path class="cls-5" d="M89.85,344.26a4.6,4.6,0,1,1-1.14.14"/><path class="cls-5" d="M43.35,344.24a4.19,4.19,0,1,1-3.26,6.68,4.41,4.41,0,0,1,2.74-6.63"/><path class="cls-6" d="M91.4,343.78l-.61,4.45c1.7.79,3.94-1.15,3.34-2.93s-3.64-1.91-4.34-.16,1.7,3.74,3.26,2.7"/><path class="cls-6" d="M44.64,344l1.69,3.6a2.21,2.21,0,1,0-2.55-3.23,2.14,2.14,0,0,0,1.51,3.1,1.84,1.84,0,0,0,1.54-2.84l-1.42-.37"/><path class="cls-7" d="M287.19,436.13c1.91-7-5.39-14-12.69-14.13s-13.84,4.42-19,9.57a73.47,73.47,0,0,0-21.3,49.05c-.17,5.27-.81,12.07-5.9,13.45s-9.25-4.49-9.36-9.65,2.13-10.16,2.11-15.33-4-11.11-9-10c-6.24,1.33-6,10.19-4.85,16.46s-1.48,15.55-7.68,14.07c-2.24-.54-3.84-2.49-5-4.47-8.33-14.11-.18-35,15.5-39.8,5.19-1.57,11.16-1.75,15.14-5.45,5.29-4.92,4.38-13.52,2-20.34s-5.87-13.84-4.39-20.91,11.41-12.29,16-6.74c-1.62,7-2.42,16.13,3.81,19.77,3.95,2.31,9.27,1,12.64-2.09s5.11-7.57,6.16-12c2.34-10,1.13-21.79-6.67-28.43-4.53-3.85-10.53-5.37-16.24-7.05s-11.65-3.85-15.37-8.5-4-12.49.89-15.88c4.11-2.83,9.83-1.42,14.13,1.12s8.05,6.11,12.78,7.74c7.92,2.73,16.61-.62,23.92-4.72s14.49-9.15,22.82-10.11,18.14,4.23,18.52,12.6c.31,6.66-5.32,12.16-11.25,15.21s-12.64,4.68-18,8.7S278,380,281.59,385.62c3.65,5.83,12.26,5.85,18.71,3.48s12.51-6.47,19.39-6.66,14.46,6.46,11.68,12.75c-2.26,5.09-9,5.8-14.51,6.6s-12.22,4.31-11.26,9.8,8.39,6.44,13.83,8c7,2,13.25,8.21,13.15,15.49s-8.67,13.69-15.05,10.18c-4.37-2.4-5.91-7.77-8.48-12s-8.53-7.82-12.26-4.5c-5.67,5,3.76,15.62-.89,21.63-3.31,4.28-10.94,1.22-12.64-3.92s.45-10.67,2.57-15.65"/><path class="cls-7" d="M172.36,503.28c-3.17-4.41-10.72-.93-12.56,4.18s-.56,10.81-1.54,16.15S151.9,534.43,147,532c-3.93-1.94-4.3-7.54-2.77-11.64s4.37-7.75,5-12.08-2.32-9.73-6.65-9.12c-6.16.88-7.3,12.11-13.49,11.58-4.81-.42-5.33-7.55-3-11.78s6.17-8.37,5.22-13.1c-1.14-5.72-8.17-7.64-13.88-8.82-10.64-2.21-21.21-5.9-29.72-12.66S73.05,447.45,73,436.58s6.93-21.95,17.43-24.78,23.09,4.61,24.12,15.43c3.41-8.3,6.94-16.71,12.56-23.72s13.7-12.53,22.66-13,18.49,5.12,20.58,13.85c1.81,7.55-1.93,15.17-4.66,22.44s-4.2,16.36,1.07,22.07c2.75,3,6.78,4.34,10.2,6.52s6.5,6,5.46,9.95c-1,3.74-5.23,5.65-7.12,9-2.77,5,.36,11.24,4.32,15.33s9,7.58,11,12.91-1.58,13.07-7.2,12.14c-3.91-.64-6-4.8-8.09-8.16s-6.19-6.68-9.63-4.72"/><path class="cls-8" d="M109.52,7c-5.65-.63-11.71.67-15.9,4.5S87.6,22,90.18,27c2.9,5.7,10,7.83,16.41,8.05s13-.85,19.11.9c9.65,2.75,16.53,13.05,15.38,23s-10.2,18.43-20.23,18.9c1.73,5,8.3,6.86,13.2,5s8.22-6.51,10.43-11.27c1.2-2.59,2.19-5.37,4.12-7.48s5.12-3.43,7.69-2.17c3.79,1.84,3.45,7.69.74,10.91s-6.83,4.83-10.17,7.4-6,7.11-4.11,10.86c1.41,2.78,4.95,4,8,3.48s5.77-2.37,8.13-4.4c14.64-12.6,20.64-34.19,15-52.67s-22.35-33-41.36-36.32c-16.95-3-36.21,3.56-44.83,18.45"/><path class="cls-9" d="M270.59,652.56c.35-5.15.77-10.55,3.6-14.86s8.93-6.94,13.32-4.23c3.25,2,5.58,6.61,9.33,5.9s5.42-6.62,9.21-6.15c3.06.37,3.82,4.52,3.22,7.54-2.6,13.2-17.16,22.73-30.3,19.85-3.86-.85-7.78-2.87-9.46-6.46s.06-8.76,3.95-9.51"/><path class="cls-9" d="M346,637.1l-14.68-1c-3.55,6.17-7.1,14-3.32,20,2.55,4,7.81,5.73,12.58,5.31s9.19-2.56,13.48-4.7c3.81-1.9,7.73-3.93,10.35-7.29s3.55-8.43,1-11.83c-3.1-4.13-9.25-3.89-14.37-3.24L329.79,637"/><path class="cls-10" d="M186.18,638.32l-12.72.55c-4.85,6-3.37,15.49,2,21.06s13.49,7.64,21.19,7.31c6.92-.29,14.19-2.62,18.43-8.1s4.11-14.54-1.55-18.54c-8.73-6.17-21.46,3.18-31.29-1"/><path class="cls-8" d="M107.53,638.6l-13.52-1c-4.2,5.32-8.63,12.21-5.8,18.37,2.64,5.75,10,7.2,16.28,7.91,7.47.85,15.32,1.65,22.24-1.29s12.27-11,9.51-18c-2-5.06-7.58-8-13-8.39s-10.78,1.19-16,2.78"/></g></g></svg>