<svg xmlns="http://www.w3.org/2000/svg" viewBox="0 0 308.86 563.25"><defs><style>.cls-1,.cls-2{fill:none;stroke:#db2e2a;stroke-miterlimit:10;}.cls-1{stroke-width:10px;}.cls-2{stroke-width:6px;}</style></defs><g id="Layer_2" data-name="Layer 2"><g id="Layer_1-2" data-name="Layer 1"><path class="cls-1" d="M125,14.31c-33.82,7.4-62.23,35.47-70,69.2-6.9,29.83-5.8,79.22-9.86,109.57-4,29.47-24,56.07-33.29,84.34C-3.27,323.68,10,356,19.64,403.74s27.43,93.32,45.46,137.7c55.79,19.59,121.45,24.18,179.68,2.33a21.4,21.4,0,0,0,13.06-13.91c16.41-55,24.1-62.61,36.57-124.48,5.17-25.61,13.89-92.42,6.75-117.56-7.93-27.91-29.52-74.18-38.68-101.72-14.4-43.28,3.57-94.06-17.33-134.61-14-27.24-44.23-44.13-74.8-46.24s-61,9.21-85.9,27.13"/><path class="cls-2" d="M124.93,38.09c-30.78,15-49,52-42.13,85.54s38.33,60.35,72.51,61.92a78,78,0,0,0,46.79-13.09c32.62-21.94,43.26-70.81,22.74-104.34s-68.9-46.26-104-28.53"/><path class="cls-2" d="M25.62,245.28A127.59,127.59,0,0,0,106,213.55"/><path class="cls-2" d="M34,247.59c-1.56,41.62,1.9,84.53,19.85,122.12s52.56,69.12,93.86,74.52a100.36,100.36,0,0,0,51-6.68c33.88-13.95,57.84-46,69.8-80.62S281.83,285,285.58,245.5a158.78,158.78,0,0,1-77.8-34.08"/><path class="cls-2" d="M155.88,183.45l-8.74,4.23a8.55,8.55,0,0,0,4.47,8.1,8.3,8.3,0,0,0,10.87-3.36c1.9-3.77-.16-9-4.18-10.33s-8.87,2-8.92,6.26"/><path class="cls-2" d="M143,188.54c-4.38-6.58-14.51-7.23-21.18-3s-10.34,12-12.23,19.62-2.33,15.65-4.36,23.28-6,15.25-12.92,19.1c9.79-7.95,25.29-2.13,36.37-8.15,7.1-3.86,10.91-11.8,13.34-19.5s4-15.87,8.56-22.55"/><path class="cls-2" d="M167,185.74c4.53-1.64,9.13-3.29,13.93-3.74s9.92.43,13.71,3.42c7.56,6,7.21,17.2,8.28,26.77,1.45,13,7.45,26.15,18.61,33-10.62-5.4-24,1.38-35.25-2.57-10.18-3.58-15.56-15-16.78-25.7-.48-4.13-.51-8.37-1.85-12.31s-4.37-7.64-8.48-8.32"/><path class="cls-2" d="M127.05,203.33c4.09-7.14,11.13-12.52,21.12-10.53a35.83,35.83,0,0,0-15.36,22.09l2.37-5.06"/><path class="cls-2" d="M165.06,193.28a28.09,28.09,0,0,1,10.57,23"/><path class="cls-2" d="M187.79,206A32.28,32.28,0,0,0,163.59,190"/><path class="cls-2" d="M171.16,124.16a15.4,15.4,0,0,1,19.66-15.78c3.08.89,5.92,2.75,9.12,2.94s6.92-2.51,6-5.58"/><path class="cls-2" d="M196.15,112.32a13.84,13.84,0,0,0,16.51.47"/><path class="cls-2" d="M197.87,115.57c3.5,6.13,13.08,7.54,18.07,2.54"/><path class="cls-2" d="M176.18,127a47.4,47.4,0,0,0,21.94-1.47"/><path class="cls-2" d="M175.84,114.16c-1.48,6.62,5,13.69,11.69,12.83s11.19-9.33,8.1-15.36"/><path class="cls-2" d="M142.81,123.83c-2.26-4.72-4.66-9.56-8.61-13s-9.85-5.16-14.52-2.8c-3.06,1.55-5.1,4.52-7,7.36s-4,5.78-7.17,7.19-7.53.61-8.86-2.56"/><path class="cls-2" d="M106.77,107.56c2.84,1.35,5.68,2.71,4.43,8.73a11.6,11.6,0,0,1-10.44-3.13"/><path class="cls-2" d="M120.06,110.34a10.28,10.28,0,1,0,16.47,4.22"/><path class="cls-2" d="M136.33,126.49a24.11,24.11,0,0,1-22.52-1"/><path class="cls-2" d="M103.39,133.57a10.3,10.3,0,1,1-1.55,1.16"/><path class="cls-2" d="M200.86,132.52c6.37-2.11,13.9,3.95,13.2,10.62s-9.33,11-15.12,7.66-6.21-13.06-.74-16.94"/><path class="cls-2" d="M156.09,150.1l-3.36-3.81A11,11,0,0,1,142.12,152a11.17,11.17,0,0,1,8.47,6.52c.74,1.73,1.07,3.71,2.33,5.11a5,5,0,0,0,7.75-1c.79-1.46.76-3.23,1.36-4.79,1.23-3.25,4.77-4.88,8-6.19a14.07,14.07,0,0,1-11.37-6.51,15.32,15.32,0,0,1-3.07,5.39"/><path class="cls-2" d="M176.91,95.19c3.62-1.58,7.84-1.3,11.6-.06a48.77,48.77,0,0,1,10.48,5.5"/><path class="cls-2" d="M138,95.64a15.19,15.19,0,0,0-13.69-.53c-1.89.88-3.58,2.15-5.45,3.08a8.19,8.19,0,0,1-6,.86"/><path class="cls-2" d="M154.7,36.54c2.14,5.45.3,11.81-3.22,16.49S143,61,138.1,64.27L81.79,101.63"/><path class="cls-2" d="M83.87,95.7C90.78,82.31,103.55,73,116.43,65.19S143,50.33,153.5,39.53"/><path class="cls-2" d="M88.48,77c.93-3.49,5-4.89,8.4-6.1a54.47,54.47,0,0,0,24.64-17.79"/><path class="cls-2" d="M126.19,51.34a48.81,48.81,0,0,1,27.55-14.47,10.69,10.69,0,0,1,2.1-.35c1,12.54,9.66,23.32,19.81,30.77S197.56,79.6,208.46,85.9s21.36,14.58,26.33,26.14"/><path class="cls-2" d="M158.92,36.83a518.45,518.45,0,0,0,70.25,41.29"/><path class="cls-2" d="M181.75,43.61a418.74,418.74,0,0,0,40.11,25.32"/><path class="cls-2" d="M182.84,64.11a105.58,105.58,0,0,1,25.34,16.47"/><path class="cls-2" d="M216.06,83.43A69.78,69.78,0,0,1,233,95.9"/><path class="cls-2" d="M157.05,36.66a37.25,37.25,0,0,0,17.48,21.17"/><path class="cls-2" d="M175.08,51.32a31.32,31.32,0,0,1,9.69,8.34"/><path class="cls-2" d="M189.14,62.12l7.66,7"/><path class="cls-2" d="M105.88,78a31.2,31.2,0,0,1,16.23-8.41"/><path class="cls-2" d="M112.24,56.06a21.62,21.62,0,0,1,13.17-9.54"/><path class="cls-2" d="M173.3,309.56a23.25,23.25,0,0,1,11.46,19.8,25.74,25.74,0,0,1-10.55,20.53,28.87,28.87,0,0,1-22.79,4.68c-9.79-2.09-18.48-9.6-21-19.28s1.76-21,13.93-24.82L141.07,308a5.06,5.06,0,0,1,7.83-3.9,8.32,8.32,0,0,1-3.38-2.06,2.91,2.91,0,0,1-.29-3.66c1.06-1.22,3.09-.84,4.38.12s2.24,2.35,3.62,3.18a3.75,3.75,0,1,1,7.24-.67,7.94,7.94,0,0,1,7.21-3.35,4.28,4.28,0,0,1-4.5,6.91,11.71,11.71,0,0,1,5.39-.13c1.74.52,3.29,2.16,3.06,4a3.58,3.58,0,0,1-2.76,2.82,5.83,5.83,0,0,1-4.05-.69,3.47,3.47,0,1,1-3.74,4.31,4.75,4.75,0,0,1-4.37,5.65c-2.74,0-5.08-2.91-5.28-5.77a4,4,0,1,1-5.29-4.66"/><path class="cls-2" d="M140.6,309.35a17.27,17.27,0,0,1-3.83-4.87,5.85,5.85,0,0,1,.37-5.92c1.3-1.62,4.15-1.92,5.4-.26a4.15,4.15,0,0,1-1.15-5.61,5.22,5.22,0,0,1,5.64-2,7.07,7.07,0,0,1,4.5,4.21,5.28,5.28,0,1,1,10.26-.15,4.72,4.72,0,1,1,7.91,4.63,5,5,0,1,1,3.15,9.14"/><path class="cls-2" d="M140.5,304.54a3.65,3.65,0,0,1,1.57-2.89"/><path class="cls-2" d="M144.8,295.88l.5-2.63,3.23,1.58"/><path class="cls-2" d="M154.58,294.75l1.69-3a4.15,4.15,0,0,1,3.89,2.42"/><path class="cls-2" d="M164.93,295.91a2.32,2.32,0,0,1,4.39.61"/><path class="cls-2" d="M172.07,301.81l2.72.62a3.8,3.8,0,0,1-.88,3.47"/><path class="cls-2" d="M155.93,308.08l-1,7.3c-.15,1.11,0,2.62,1.05,2.84s1.84-1.4,1.84-2.64a18.32,18.32,0,0,0-1.67-7.64"/><path class="cls-2" d="M151.21,308.23a13.53,13.53,0,0,0-4.85,6.31,8.57,8.57,0,0,0,5.09-6.2"/><path class="cls-2" d="M148,304.81c-.76.78-2,.59-3.1.74s-2.25,1.31-1.57,2.16a1.79,1.79,0,0,0,1.69.37,12.6,12.6,0,0,0,5.68-2.43,7,7,0,0,0-5.05.33"/><path class="cls-2" d="M160.69,309.36a4.87,4.87,0,0,0,4.34,4.93,3.87,3.87,0,0,0-4.12-4"/><path class="cls-2" d="M163.24,307.52a6.06,6.06,0,0,1,2.55.84,3.67,3.67,0,0,0,2.61.43c.86-.29,1.44-1.44.86-2.13-.73-.86-2.1-.14-3,.54s-2.49,1.1-2.9.05"/><path class="cls-2" d="M133,341.1c-2.69-9.38.34-20.15,9-23.71a52.54,52.54,0,0,0-3.65,29.4"/><path class="cls-2" d="M146.14,320.83a58.66,58.66,0,0,0-.15,31.49"/><path class="cls-2" d="M149.71,321.72a60,60,0,0,0,1.85,32.43"/><path class="cls-2" d="M154.07,322.18q.68,14.49.31,29l.33-1.1"/><path class="cls-2" d="M159,323l.19,27.91"/><path class="cls-2" d="M163.82,320.57a181.17,181.17,0,0,1,.15,30.28l-.08-.43"/><path class="cls-2" d="M173.06,314.46a32.39,32.39,0,0,1,7.43,22.8"/><path class="cls-2" d="M167.09,320.06a77.31,77.31,0,0,1,1.85,28.42"/><path class="cls-2" d="M171.34,317a55.45,55.45,0,0,1,2.43,31.17"/><path class="cls-2" d="M130.58,319a15.29,15.29,0,0,0-3.63-6.37,8.08,8.08,0,0,0-6.73-2.4c-4.21.69-6.63,5.36-6.93,9.61-.45,6.37,2.36,12.62,6.39,17.56s9.22,8.78,14.36,12.57a14.52,14.52,0,0,0,4.44,2.52,4.91,4.91,0,0,0,4.79-1,22.89,22.89,0,0,1-13.52-13.26,21.85,21.85,0,0,1,1.57-18.76l-.16-.32"/><path class="cls-2" d="M183.49,319.55a8.45,8.45,0,0,1,15.74-5.13c1.83,3.23,1.35,7.26.3,10.82a39.28,39.28,0,0,1-27.6,26.48,25.79,25.79,0,0,0,10.82-32.51"/><path class="cls-2" d="M144.45,353.63a22.86,22.86,0,0,1-6.35,14.43c-2,2.06-4.61,4.25-4.3,7.1s3.36,4.46,6.15,4.69c5.59.45,11-3.16,13.72-8.09s2.94-10.9,1.77-16.39a13.75,13.75,0,0,1-11.28-1.75h.16"/><path class="cls-2" d="M158.89,354.62a43.38,43.38,0,0,0-.47,10,14.4,14.4,0,0,0,4,8.95c2.18,2.07,5.11,3.13,8,4.12a15.23,15.23,0,0,0,5.57,1.21,5.2,5.2,0,0,0,4.66-2.8,5.45,5.45,0,0,0-.74-4.89,27,27,0,0,0-3.42-3.83,26.64,26.64,0,0,1-7-14.29,21.48,21.48,0,0,1-10.52,2.78l.64.16"/><path class="cls-2" d="M170.73,352.42a48.66,48.66,0,0,0,21.71-12.82,88.27,88.27,0,0,1,6.37-6.46,13.3,13.3,0,0,1,8.22-3.43c3,0,6.17,1.81,7.05,4.71s-.49,5.7-2.09,8.09a31.58,31.58,0,0,1-18.88,13,33.26,33.26,0,0,1-22.81-3.16c0,.05.11.11.43,3.51a62,62,0,0,0,30.41-1.68,29,29,0,0,1,6-1.51,7.35,7.35,0,0,1,5.74,1.66,6.76,6.76,0,0,1,1.53,6.64,13.28,13.28,0,0,1-3.89,5.9,25.41,25.41,0,0,1-23.13,6.48c-8.11-2-15-8.82-16.52-17"/><path class="cls-2" d="M142.62,354.78a41.7,41.7,0,0,1-29,.09c-3.35-1.25-7.21-2.92-10.3-1.1-2.92,1.73-3.47,5.93-2.17,9.07,1.5,3.62,4.87,6.2,8.52,7.63s7.61,1.85,11.51,2.26c3.75.39,7.68.76,11.17-.66a15.44,15.44,0,0,0,7.57-7.57,46.39,46.39,0,0,0,3.33-10.4"/><path class="cls-2" d="M117.07,334.84a13.61,13.61,0,0,0-8.09-4.78c-3.18-.43-6.69.94-8.21,3.75-2.25,4.17.5,9.3,3.84,12.64A35.92,35.92,0,0,0,142.84,354c-5.38-2-10.81-4-15.62-7.12s-9-7.54-10.65-13l.16.16"/><path class="cls-2" d="M110.09,269.06l-1.34-10.47a7.27,7.27,0,0,1,0-2.75,2.17,2.17,0,0,1,4.28-.11,6.87,6.87,0,0,1,.06,3.22,94,94,0,0,1-2.36,11.12l-1.48-3.67"/><path class="cls-2" d="M107.82,265.08l-3.63-3.44a3.39,3.39,0,0,0-2.16,3.3,10.05,10.05,0,0,0,1.14,4l4.67,10.57a18.53,18.53,0,0,0-1.45-16.18"/><path class="cls-2" d="M103.81,276.47l-3.23-1.42c-1.2,1.93.18,4.38,1.52,6.22l6.78,9.27a16.93,16.93,0,0,0-6.09-15.32"/><path class="cls-2" d="M104.13,287.86,101,289.41a50,50,0,0,0,12.76,10.27,19,19,0,0,0-9.94-12.18"/><path class="cls-2" d="M113.52,296.61a11.29,11.29,0,0,1-1.32-11.07,3.85,3.85,0,0,1,1.68-2.05,1.73,1.73,0,0,1,2.32.66,2.64,2.64,0,0,1-.24,2l-3.35,8.38"/><path class="cls-2" d="M110.8,283.47a8,8,0,0,1,1.8-9.71,3.91,3.91,0,0,1,2.3-1,1.94,1.94,0,0,1,2,1.31,3.09,3.09,0,0,1-.86,2.44l-5.85,8"/><path class="cls-2" d="M111.72,270.4a15.54,15.54,0,0,1,1.82-5.25,5.32,5.32,0,0,1,4.61-2.65c1.86.14,3.54,2.05,3,3.83a5.08,5.08,0,0,1-2.43,2.54,52,52,0,0,1-8.34,4.19,12.57,12.57,0,0,1,2.25-4.93"/><path class="cls-2" d="M113,264.45a10.28,10.28,0,0,1,5.66-7.71,4.42,4.42,0,0,1,3.52-.37,2.14,2.14,0,0,1,1.17,3c-.91,1.34-3,.67-4.56.76-2.52.15-4.31,2.42-5.76,4.48"/><path class="cls-2" d="M114.9,258.5l-.8-7.7a4.3,4.3,0,0,1,.11-2,1.46,1.46,0,0,1,1.55-1c.76.17,1.08,1.07,1.2,1.84a12.89,12.89,0,0,1-1.82,8.82"/><path class="cls-2" d="M117.38,257.19a6.28,6.28,0,0,1,7-5.41,1.8,1.8,0,0,1,1.56,1.07c.27,1.06-1.1,1.73-2.18,1.94l-6.21,1.28"/><path class="cls-2" d="M118.76,252.05c.32-1.07-.17-2.2-.44-3.29s-.21-2.48.78-3c1.18-.65,2.67.67,2.69,2a5.48,5.48,0,0,1-1.78,3.53,7.35,7.35,0,0,0-2.13,3.38"/><path class="cls-2" d="M114.09,301.93c-1.48-.39-2.56-1.65-3.92-2.35s-3.53-.43-3.8,1.08c-.25,1.34,1.17,2.33,2.39,2.94l8.77,4.39a9.7,9.7,0,0,0-5.68-7"/><path class="cls-2" d="M115.48,301.13a7.59,7.59,0,0,1,1.78-10.19,22.86,22.86,0,0,1-2,12.09"/><path class="cls-2" d="M203.42,269.94l1.34-10.47a7.27,7.27,0,0,0,0-2.75,2.17,2.17,0,0,0-4.28-.11,6.78,6.78,0,0,0-.06,3.23A93.79,93.79,0,0,0,202.78,271l1.47-3.67"/><path class="cls-2" d="M205.68,266l3.64-3.44a3.41,3.41,0,0,1,2.16,3.3,10.05,10.05,0,0,1-1.14,4l-4.68,10.58a18.59,18.59,0,0,1,1.46-16.19"/><path class="cls-2" d="M209.69,277.35l3.24-1.42c1.2,1.93-.18,4.38-1.52,6.22l-6.78,9.27a16.94,16.94,0,0,1,6.09-15.32"/><path class="cls-2" d="M209.37,288.74l3.13,1.55a50,50,0,0,1-12.76,10.27,19,19,0,0,1,9.94-12.18"/><path class="cls-2" d="M200,297.49a11.26,11.26,0,0,0,1.31-11.07,3.79,3.79,0,0,0-1.67-2.05,1.73,1.73,0,0,0-2.32.66,2.59,2.59,0,0,0,.24,2l3.35,8.38"/><path class="cls-2" d="M202.71,284.35a8,8,0,0,0-1.8-9.71,3.91,3.91,0,0,0-2.3-1,2,2,0,0,0-2,1.31,3.05,3.05,0,0,0,.86,2.44l5.85,8"/><path class="cls-2" d="M201.79,271.28A15.63,15.63,0,0,0,200,266a5.31,5.31,0,0,0-4.61-2.66c-1.86.14-3.54,2.05-3,3.83a5,5,0,0,0,2.43,2.54,52,52,0,0,0,8.34,4.19,12.57,12.57,0,0,0-2.25-4.93"/><path class="cls-2" d="M200.49,265.33a10.28,10.28,0,0,0-5.66-7.71,4.42,4.42,0,0,0-3.52-.37,2.14,2.14,0,0,0-1.17,3c.91,1.34,3,.67,4.56.76,2.52.15,4.31,2.42,5.76,4.48"/><path class="cls-2" d="M198.61,259.38l.8-7.7a4.3,4.3,0,0,0-.11-2,1.46,1.46,0,0,0-1.55-1c-.76.17-1.08,1.07-1.21,1.84a13,13,0,0,0,1.83,8.82"/><path class="cls-2" d="M196.13,258.07a6.29,6.29,0,0,0-7-5.41,1.8,1.8,0,0,0-1.55,1.07c-.27,1.06,1.1,1.73,2.18,2L196,257"/><path class="cls-2" d="M194.75,252.93c-.33-1.07.16-2.2.44-3.29s.21-2.48-.78-3c-1.18-.65-2.67.68-2.69,2a5.43,5.43,0,0,0,1.78,3.52,7.35,7.35,0,0,1,2.13,3.38"/><path class="cls-2" d="M199.42,302.81c1.48-.39,2.56-1.65,3.92-2.34s3.53-.44,3.8,1.07c.25,1.34-1.17,2.33-2.39,2.94L196,308.87a9.72,9.72,0,0,1,5.68-7"/><path class="cls-2" d="M198,302a7.57,7.57,0,0,0-1.77-10.19,22.86,22.86,0,0,0,2,12.09"/><path class="cls-2" d="M101.76,346.53a51.23,51.23,0,0,0-14.9-6.84,25.06,25.06,0,0,0-16.14,1c-5,2.25-9.09,6.88-9.89,12.31s2.15,11.42,7.26,13.42,11.8-.88,13.22-6.18a9.21,9.21,0,0,0-5.5-10.63"/><path class="cls-2" d="M208.56,347.06c5.18-.54,10-2.74,14.79-4.86s9.66-4.23,14.86-4.57,10.84,1.44,13.82,5.71c3.39,4.86,2.38,12-1.48,16.45a13.48,13.48,0,0,1-8.49,4.76,9.91,9.91,0,0,1-8.88-3.47,7.91,7.91,0,0,1-.35-9.27,6.58,6.58,0,0,1,8.83-1.56"/></g></g></svg>