<svg xmlns="http://www.w3.org/2000/svg" viewBox="0 0 419.62 598.64"><defs><style>.cls-1{fill:#4d5aa8;}.cls-2{fill:#c47e44;stroke:#562416;stroke-miterlimit:10;stroke-width:10px;}</style></defs><g id="Layer_2" data-name="Layer 2"><g id="Layer_1-2" data-name="Layer 1"><polygon class="cls-1" points="205.83 143.09 217.34 204.15 237.44 204.16 221.07 117.77 205.83 143.09"/><path class="cls-1" d="M137,381.73,18.63,457.62a17.86,17.86,0,0,0,0,33.44L203.84,592.67c9.12,7.47,21.82,7.91,30.54,1.47,7.05-5.2,10.6-14.22,9.33-23.33V443.47a32.78,32.78,0,0,0-2.33-18.42,33.4,33.4,0,0,0-16-16.31L61.75,313.61a169.43,169.43,0,0,1-21.26-55.35l-4.68-21.2q-8.58-38.91-17.18-77.84L3.19,164.37,26.35,264.69a82.21,82.21,0,0,0,27,61.47L159.61,388.1l44.23,25.79a58.76,58.76,0,0,1,28.3,45l-1.29,100.32a17.16,17.16,0,0,1-27,15.43L39.21,482.06A12.82,12.82,0,0,1,34.62,473a13,13,0,0,1,4.59-10.24L146,398.46"/><path class="cls-2" d="M207.3,32.45l11.77,64.77c.28,1.51.64,3,1,4.49a38.72,38.72,0,0,1,1,16.06c-3,19.22-20.21,29.46-25.62,32.25-1.18.6-2.33,1.26-3.45,1.95L64.07,231.44a45.08,45.08,0,0,0-6.22,4.49,17.15,17.15,0,0,1-28.69-14.82,52.57,52.57,0,0,0-1.5-19.05L14.37,149.61a52.2,52.2,0,0,0-4.46-11.5A41.91,41.91,0,0,1,5.08,116a41.2,41.2,0,0,1,9.27-23.16A49.13,49.13,0,0,1,29.47,80.44L153.55,13.56A51,51,0,0,0,158,10.87c10.23-7,23.31-7.82,33.64-2.06C204.84,16.18,207.07,30.76,207.3,32.45Z"/><path class="cls-1" d="M244.13,408.42l138.22,78c10.79,3.74,22.19,2,29.68-4.83a26.43,26.43,0,0,0,7.59-13.11l-6.21-142.3c2.15-5,1.28-10.5-2.07-13.65a10.84,10.84,0,0,0-6.9-2.76l-20.71,16.41,7.6-.54A280.91,280.91,0,0,1,400,358.8a285.62,285.62,0,0,1,3.09,89.65c1.15,6.6-1.7,13-6.9,15.87s-10.8,1-11.74.69L263,398.07Z"/><path class="cls-2" d="M81.83,325.28a23,23,0,0,1-11.54-21.89c0-.41.09-.82.16-1.24,1.81-12.37,11.75-18.51,13.11-19.32l126.28-70.38a54.77,54.77,0,0,1,57.4-.35c.46.28.92.53,1.39.77l124.73,64.05a22.85,22.85,0,0,1,5.05,3.49c3.34,3.09,8.21,8.89,8.79,16.91.86,11.87-8,24-22,28.41a21.53,21.53,0,0,0-3.46,1.47L236.89,402.74a23.57,23.57,0,0,1-22.74-.52Z"/></g></g></svg>